<svg id="svg" version="1.1" xmlns="http://www.w3.org/2000/svg" xmlns:xlink="http://www.w3.org/1999/xlink" width="400" height="400" viewBox="0, 0, 400,400"><g id="svgg"><path id="path0" d="M193.929 84.536 C 189.686 86.314,186.068 89.994,184.329 94.299 L 183.400 96.600 183.400 154.000 C 183.400 217.789,183.195 212.825,186.011 217.200 C 188.771 221.487,273.595 305.476,276.481 306.780 C 290.962 313.321,304.926 298.575,298.052 284.000 C 297.166 282.119,291.191 275.966,256.907 241.617 L 216.800 201.434 216.798 150.617 C 216.795 96.653,216.793 96.591,214.807 92.554 C 211.168 85.160,201.396 81.407,193.929 84.536 " stroke="none" fill="#fbfbfc" fill-rule="evenodd"></path><path id="path1" d="M178.500 0.274 C 176.465 0.360,174.800 0.603,174.800 0.815 C 174.800 1.027,173.540 1.200,172.000 1.200 C 170.400 1.200,169.200 1.371,169.200 1.600 C 169.200 1.822,168.133 2.000,166.800 2.000 C 165.467 2.000,164.400 2.178,164.400 2.400 C 164.400 2.620,163.511 2.800,162.424 2.800 C 161.337 2.800,160.336 2.980,160.200 3.200 C 160.064 3.420,159.243 3.600,158.376 3.600 C 157.509 3.600,156.800 3.780,156.800 4.000 C 156.800 4.220,155.900 4.400,154.800 4.400 C 153.700 4.400,152.800 4.580,152.800 4.800 C 152.800 5.020,152.181 5.200,151.424 5.200 C 150.667 5.200,149.936 5.380,149.800 5.600 C 149.664 5.820,149.034 6.000,148.400 6.000 C 147.766 6.000,147.136 6.180,147.000 6.400 C 146.864 6.620,146.234 6.800,145.600 6.800 C 144.966 6.800,144.336 6.980,144.200 7.200 C 144.064 7.420,143.434 7.600,142.800 7.600 C 142.166 7.600,141.536 7.780,141.400 8.000 C 141.264 8.220,140.623 8.400,139.976 8.400 C 139.329 8.400,138.800 8.580,138.800 8.800 C 138.800 9.020,138.260 9.200,137.600 9.200 C 136.940 9.200,136.400 9.356,136.400 9.546 C 136.400 9.736,135.594 10.002,134.609 10.137 C 133.624 10.272,132.499 10.545,132.109 10.744 C 131.719 10.944,130.860 11.329,130.200 11.600 C 129.540 11.871,128.730 12.222,128.400 12.379 C 128.070 12.537,126.945 12.915,125.900 13.220 C 124.855 13.525,124.000 13.915,124.000 14.087 C 124.000 14.259,123.728 14.400,123.395 14.400 C 122.807 14.400,122.382 14.567,120.505 15.538 C 120.013 15.792,119.338 16.000,119.005 16.000 C 118.672 16.000,118.400 16.180,118.400 16.400 C 118.400 16.620,118.040 16.800,117.600 16.800 C 117.160 16.800,116.800 16.980,116.800 17.200 C 116.800 17.420,116.440 17.600,116.000 17.600 C 115.560 17.600,115.200 17.780,115.200 18.000 C 115.200 18.220,114.851 18.400,114.424 18.400 C 113.997 18.400,113.536 18.580,113.400 18.800 C 113.264 19.020,112.803 19.200,112.376 19.200 C 111.949 19.200,111.600 19.359,111.600 19.553 C 111.600 19.748,111.285 20.007,110.900 20.129 C 109.964 20.425,107.834 21.724,107.667 22.100 C 107.593 22.265,107.188 22.400,106.767 22.400 C 106.345 22.400,106.000 22.580,106.000 22.800 C 106.000 23.020,105.640 23.200,105.200 23.200 C 104.760 23.200,104.400 23.380,104.400 23.600 C 104.400 23.820,104.040 24.000,103.600 24.000 C 103.160 24.000,102.800 24.180,102.800 24.400 C 102.800 24.620,102.440 24.800,102.000 24.800 C 101.560 24.800,101.200 24.980,101.200 25.200 C 101.200 25.420,100.880 25.600,100.488 25.600 C 100.097 25.600,99.517 25.960,99.200 26.400 C 98.883 26.840,98.345 27.200,98.005 27.200 C 97.664 27.200,96.723 27.650,95.914 28.200 C 95.105 28.750,94.253 29.200,94.021 29.200 C 93.790 29.200,93.600 29.358,93.600 29.551 C 93.600 29.745,93.060 30.127,92.400 30.400 C 91.740 30.673,91.200 31.055,91.200 31.249 C 91.200 31.442,90.964 31.600,90.675 31.600 C 90.387 31.600,89.764 31.960,89.292 32.400 C 88.820 32.840,88.273 33.200,88.076 33.200 C 87.879 33.200,87.154 33.740,86.463 34.400 C 85.772 35.060,84.975 35.600,84.692 35.600 C 84.409 35.600,83.917 35.960,83.600 36.400 C 83.283 36.840,82.838 37.200,82.612 37.200 C 82.385 37.201,81.660 37.666,81.000 38.235 C 80.340 38.804,79.305 39.563,78.699 39.921 C 78.094 40.280,77.497 40.894,77.373 41.287 C 77.248 41.679,76.880 42.000,76.555 42.000 C 76.230 42.000,75.530 42.405,75.001 42.900 C 73.802 44.022,73.286 44.423,71.904 45.310 C 71.301 45.697,70.041 46.778,69.104 47.712 C 68.167 48.646,66.770 49.856,66.000 50.400 C 65.230 50.944,63.610 52.435,62.400 53.715 C 59.604 56.671,56.671 59.604,53.715 62.400 C 52.435 63.610,50.944 65.230,50.400 66.000 C 49.856 66.770,48.646 68.167,47.712 69.104 C 46.778 70.041,45.697 71.301,45.310 71.904 C 44.423 73.286,44.022 73.802,42.900 75.001 C 42.405 75.530,42.000 76.230,42.000 76.555 C 42.000 76.880,41.679 77.248,41.287 77.373 C 40.894 77.497,40.280 78.094,39.921 78.699 C 39.563 79.305,38.804 80.340,38.235 81.000 C 37.666 81.660,37.201 82.385,37.200 82.612 C 37.200 82.838,36.840 83.283,36.400 83.600 C 35.960 83.917,35.600 84.362,35.599 84.588 C 35.599 84.815,35.059 85.630,34.400 86.400 C 33.741 87.170,33.201 87.943,33.201 88.117 C 33.200 88.291,32.840 88.820,32.400 89.292 C 31.960 89.764,31.600 90.387,31.600 90.675 C 31.600 90.964,31.442 91.200,31.249 91.200 C 31.055 91.200,30.673 91.740,30.400 92.400 C 30.127 93.060,29.745 93.600,29.551 93.600 C 29.358 93.600,29.200 93.790,29.200 94.021 C 29.200 94.253,28.750 95.105,28.200 95.914 C 27.650 96.723,27.200 97.664,27.200 98.005 C 27.200 98.345,26.840 98.883,26.400 99.200 C 25.960 99.517,25.600 100.097,25.600 100.488 C 25.600 100.880,25.420 101.200,25.200 101.200 C 24.980 101.200,24.800 101.560,24.800 102.000 C 24.800 102.440,24.620 102.800,24.400 102.800 C 24.180 102.800,24.000 103.160,24.000 103.600 C 24.000 104.040,23.820 104.400,23.600 104.400 C 23.380 104.400,23.200 104.760,23.200 105.200 C 23.200 105.640,23.020 106.000,22.800 106.000 C 22.580 106.000,22.400 106.360,22.400 106.800 C 22.400 107.240,22.246 107.600,22.058 107.600 C 21.665 107.600,18.392 113.947,18.397 114.700 C 18.399 114.975,18.220 115.200,18.000 115.200 C 17.780 115.200,17.600 115.560,17.600 116.000 C 17.600 116.440,17.420 116.800,17.200 116.800 C 16.980 116.800,16.800 117.160,16.800 117.600 C 16.800 118.040,16.620 118.400,16.400 118.400 C 16.180 118.400,16.000 118.672,16.000 119.005 C 16.000 119.593,15.833 120.018,14.862 121.895 C 14.608 122.387,14.400 123.062,14.400 123.395 C 14.400 123.728,14.220 124.000,14.000 124.000 C 13.780 124.000,13.600 124.246,13.600 124.547 C 13.600 125.161,11.633 130.370,10.744 132.109 C 10.545 132.499,10.272 133.624,10.137 134.609 C 10.002 135.594,9.736 136.400,9.546 136.400 C 9.356 136.400,9.200 136.940,9.200 137.600 C 9.200 138.260,9.020 138.800,8.800 138.800 C 8.580 138.800,8.400 139.329,8.400 139.976 C 8.400 140.623,8.220 141.264,8.000 141.400 C 7.780 141.536,7.600 142.166,7.600 142.800 C 7.600 143.434,7.420 144.064,7.200 144.200 C 6.980 144.336,6.800 144.966,6.800 145.600 C 6.800 146.234,6.620 146.864,6.400 147.000 C 6.180 147.136,6.000 147.766,6.000 148.400 C 6.000 149.034,5.820 149.664,5.600 149.800 C 5.380 149.936,5.200 150.667,5.200 151.424 C 5.200 152.181,5.020 152.800,4.800 152.800 C 4.580 152.800,4.400 153.700,4.400 154.800 C 4.400 155.900,4.220 156.800,4.000 156.800 C 3.780 156.800,3.600 157.509,3.600 158.376 C 3.600 159.243,3.420 160.064,3.200 160.200 C 2.980 160.336,2.800 161.236,2.800 162.200 C 2.800 163.164,2.620 164.064,2.400 164.200 C 2.180 164.336,2.000 165.517,2.000 166.824 C 2.000 168.141,1.822 169.200,1.600 169.200 C 1.372 169.200,1.200 170.389,1.200 171.967 C 1.200 173.824,1.036 174.788,0.700 174.900 C -0.032 175.144,-0.032 224.856,0.700 225.100 C 1.036 225.212,1.200 226.176,1.200 228.033 C 1.200 229.611,1.372 230.800,1.600 230.800 C 1.822 230.800,2.000 231.859,2.000 233.176 C 2.000 234.483,2.180 235.664,2.400 235.800 C 2.620 235.936,2.800 236.836,2.800 237.800 C 2.800 238.764,2.980 239.664,3.200 239.800 C 3.420 239.936,3.600 240.757,3.600 241.624 C 3.600 242.491,3.780 243.200,4.000 243.200 C 4.220 243.200,4.400 244.100,4.400 245.200 C 4.400 246.300,4.580 247.200,4.800 247.200 C 5.020 247.200,5.200 247.920,5.200 248.800 C 5.200 249.680,5.380 250.400,5.600 250.400 C 5.820 250.400,6.000 251.030,6.000 251.800 C 6.000 252.570,6.180 253.200,6.400 253.200 C 6.620 253.200,6.800 253.830,6.800 254.600 C 6.800 255.370,6.980 256.000,7.200 256.000 C 7.420 256.000,7.600 256.529,7.600 257.176 C 7.600 257.823,7.780 258.464,8.000 258.600 C 8.220 258.736,8.400 259.377,8.400 260.024 C 8.400 260.671,8.580 261.200,8.800 261.200 C 9.020 261.200,9.200 261.740,9.200 262.400 C 9.200 263.060,9.356 263.600,9.546 263.600 C 9.736 263.600,10.002 264.406,10.137 265.391 C 10.272 266.376,10.545 267.501,10.744 267.891 C 11.346 269.068,11.919 270.513,12.455 272.200 C 12.735 273.080,13.107 273.971,13.282 274.180 C 13.457 274.389,13.600 274.884,13.600 275.280 C 13.600 275.676,13.780 276.000,14.000 276.000 C 14.220 276.000,14.400 276.272,14.400 276.605 C 14.400 276.938,14.580 277.568,14.800 278.005 C 15.020 278.442,15.380 279.158,15.600 279.595 C 15.820 280.032,16.000 280.662,16.000 280.995 C 16.000 281.328,16.180 281.600,16.400 281.600 C 16.620 281.600,16.800 281.960,16.800 282.400 C 16.800 282.840,16.980 283.200,17.200 283.200 C 17.420 283.200,17.600 283.560,17.600 284.000 C 17.600 284.440,17.780 284.800,18.000 284.800 C 18.220 284.800,18.399 285.025,18.397 285.300 C 18.392 286.053,21.665 292.400,22.058 292.400 C 22.246 292.400,22.400 292.760,22.400 293.200 C 22.400 293.640,22.580 294.000,22.800 294.000 C 23.020 294.000,23.200 294.360,23.200 294.800 C 23.200 295.240,23.380 295.600,23.600 295.600 C 23.820 295.600,24.000 295.960,24.000 296.400 C 24.000 296.840,24.180 297.200,24.400 297.200 C 24.620 297.200,24.800 297.560,24.800 298.000 C 24.800 298.440,24.980 298.800,25.200 298.800 C 25.420 298.800,25.600 299.036,25.600 299.325 C 25.600 299.613,25.960 300.236,26.400 300.708 C 26.840 301.180,27.200 301.819,27.200 302.127 C 27.200 302.436,27.605 303.298,28.100 304.044 C 28.595 304.790,29.255 305.895,29.568 306.500 C 29.880 307.105,30.285 307.600,30.468 307.600 C 30.650 307.600,30.800 307.870,30.800 308.200 C 30.800 308.530,30.980 308.800,31.200 308.800 C 31.420 308.800,31.600 309.036,31.600 309.325 C 31.600 309.613,31.960 310.236,32.400 310.708 C 32.840 311.180,33.200 311.756,33.200 311.987 C 33.200 312.218,33.740 312.972,34.400 313.663 C 35.060 314.354,35.600 315.122,35.600 315.371 C 35.600 315.620,35.960 316.083,36.400 316.400 C 36.840 316.717,37.200 317.173,37.200 317.413 C 37.200 317.653,37.520 318.198,37.911 318.625 C 38.302 319.051,39.058 320.030,39.592 320.800 C 40.125 321.570,40.886 322.491,41.281 322.847 C 41.676 323.203,42.000 323.616,42.000 323.765 C 42.000 323.914,42.405 324.470,42.900 324.999 C 44.022 326.198,44.423 326.714,45.310 328.096 C 45.697 328.699,46.778 329.959,47.712 330.896 C 48.646 331.833,49.855 333.230,50.398 334.000 C 50.940 334.770,52.828 336.795,54.592 338.499 C 58.682 342.450,59.505 343.273,62.304 346.210 C 63.567 347.535,65.217 349.055,65.971 349.588 C 66.726 350.120,68.329 351.511,69.534 352.678 C 70.739 353.845,71.854 354.800,72.012 354.800 C 72.170 354.800,72.997 355.445,73.850 356.233 C 74.702 357.021,75.895 357.925,76.500 358.243 C 77.105 358.561,77.600 358.957,77.600 359.124 C 77.600 359.291,78.095 359.721,78.700 360.079 C 79.305 360.437,80.340 361.196,81.000 361.765 C 81.660 362.334,82.385 362.799,82.612 362.800 C 82.838 362.800,83.283 363.160,83.600 363.600 C 83.917 364.040,84.409 364.400,84.692 364.400 C 84.975 364.400,85.772 364.940,86.463 365.600 C 87.154 366.260,87.962 366.800,88.259 366.800 C 88.557 366.800,88.800 366.958,88.800 367.151 C 88.800 367.345,89.340 367.727,90.000 368.000 C 90.660 368.273,91.200 368.655,91.200 368.849 C 91.200 369.042,91.520 369.200,91.912 369.200 C 92.303 369.200,92.883 369.560,93.200 370.000 C 93.517 370.440,93.973 370.800,94.213 370.800 C 94.453 370.800,94.998 371.115,95.425 371.500 C 95.851 371.885,96.740 372.470,97.400 372.800 C 98.060 373.130,99.210 373.805,99.956 374.300 C 100.702 374.795,101.647 375.200,102.056 375.200 C 102.465 375.200,102.800 375.380,102.800 375.600 C 102.800 375.820,103.160 376.000,103.600 376.000 C 104.040 376.000,104.400 376.180,104.400 376.400 C 104.400 376.620,104.678 376.800,105.017 376.800 C 105.356 376.800,106.020 377.160,106.492 377.600 C 106.964 378.040,107.587 378.400,107.875 378.400 C 108.164 378.400,108.400 378.580,108.400 378.800 C 108.400 379.020,108.760 379.200,109.200 379.200 C 109.640 379.200,110.000 379.380,110.000 379.600 C 110.000 379.820,110.360 380.000,110.800 380.000 C 111.240 380.000,111.600 380.180,111.600 380.400 C 111.600 380.620,111.949 380.800,112.376 380.800 C 112.803 380.800,113.264 380.980,113.400 381.200 C 113.536 381.420,113.997 381.600,114.424 381.600 C 114.851 381.600,115.200 381.780,115.200 382.000 C 115.200 382.220,115.560 382.400,116.000 382.400 C 116.440 382.400,116.800 382.580,116.800 382.800 C 116.800 383.020,117.160 383.200,117.600 383.200 C 118.040 383.200,118.400 383.380,118.400 383.600 C 118.400 383.820,118.760 384.000,119.200 384.000 C 119.640 384.000,120.000 384.180,120.000 384.400 C 120.000 384.620,120.439 384.800,120.976 384.800 C 121.513 384.800,122.064 384.980,122.200 385.200 C 122.336 385.420,122.797 385.600,123.224 385.600 C 123.651 385.600,124.000 385.780,124.000 386.000 C 124.000 386.220,124.279 386.400,124.619 386.400 C 124.960 386.400,125.984 386.760,126.894 387.200 C 127.805 387.640,128.789 388.000,129.081 388.000 C 129.372 388.000,129.923 388.159,130.305 388.353 C 132.935 389.691,138.875 391.600,140.408 391.600 C 141.064 391.600,141.600 391.780,141.600 392.000 C 141.600 392.220,142.129 392.400,142.776 392.400 C 143.423 392.400,144.064 392.580,144.200 392.800 C 144.336 393.020,144.966 393.200,145.600 393.200 C 146.234 393.200,146.864 393.380,147.000 393.600 C 147.136 393.820,147.766 394.000,148.400 394.000 C 149.034 394.000,149.664 394.180,149.800 394.400 C 149.936 394.620,150.656 394.800,151.400 394.800 C 152.144 394.800,152.864 394.980,153.000 395.200 C 153.136 395.420,154.047 395.600,155.024 395.600 C 156.001 395.600,156.800 395.780,156.800 396.000 C 156.800 396.220,157.509 396.400,158.376 396.400 C 159.243 396.400,160.064 396.580,160.200 396.800 C 160.336 397.020,161.337 397.200,162.424 397.200 C 163.511 397.200,164.400 397.380,164.400 397.600 C 164.400 397.822,165.467 398.000,166.800 398.000 C 168.133 398.000,169.200 398.178,169.200 398.400 C 169.200 398.628,170.389 398.800,171.967 398.800 C 173.824 398.800,174.788 398.964,174.900 399.300 C 175.144 400.032,224.856 400.032,225.100 399.300 C 225.212 398.964,226.176 398.800,228.033 398.800 C 229.611 398.800,230.800 398.628,230.800 398.400 C 230.800 398.178,231.867 398.000,233.200 398.000 C 234.533 398.000,235.600 397.822,235.600 397.600 C 235.600 397.380,236.590 397.200,237.800 397.200 C 239.010 397.200,240.000 397.020,240.000 396.800 C 240.000 396.580,240.720 396.400,241.600 396.400 C 242.480 396.400,243.200 396.220,243.200 396.000 C 243.200 395.780,243.999 395.600,244.976 395.600 C 245.953 395.600,246.864 395.420,247.000 395.200 C 247.136 394.980,247.957 394.800,248.824 394.800 C 249.691 394.800,250.400 394.620,250.400 394.400 C 250.400 394.180,250.929 394.000,251.576 394.000 C 252.223 394.000,252.864 393.820,253.000 393.600 C 253.136 393.380,253.867 393.200,254.624 393.200 C 255.381 393.200,256.000 393.020,256.000 392.800 C 256.000 392.580,256.630 392.400,257.400 392.400 C 258.170 392.400,258.800 392.220,258.800 392.000 C 258.800 391.780,259.246 391.600,259.792 391.600 C 260.821 391.600,266.478 389.876,267.695 389.191 C 268.077 388.976,268.752 388.800,269.195 388.800 C 269.638 388.800,270.000 388.620,270.000 388.400 C 270.000 388.180,270.362 388.000,270.805 388.000 C 271.248 388.000,271.968 387.820,272.405 387.600 C 272.842 387.380,273.558 387.020,273.995 386.800 C 274.432 386.580,275.062 386.400,275.395 386.400 C 275.728 386.400,276.000 386.220,276.000 386.000 C 276.000 385.780,276.272 385.600,276.605 385.600 C 276.938 385.600,277.568 385.420,278.005 385.200 C 278.442 384.980,279.158 384.620,279.595 384.400 C 280.032 384.180,280.662 384.000,280.995 384.000 C 281.328 384.000,281.600 383.820,281.600 383.600 C 281.600 383.380,281.960 383.200,282.400 383.200 C 282.840 383.200,283.200 383.020,283.200 382.800 C 283.200 382.580,283.560 382.400,284.000 382.400 C 284.440 382.400,284.800 382.220,284.800 382.000 C 284.800 381.780,285.149 381.600,285.576 381.600 C 286.003 381.600,286.464 381.420,286.600 381.200 C 286.736 380.980,287.197 380.800,287.624 380.800 C 288.051 380.800,288.400 380.620,288.400 380.400 C 288.400 380.180,288.760 380.000,289.200 380.000 C 289.640 380.000,290.000 379.820,290.000 379.600 C 290.000 379.380,290.360 379.200,290.800 379.200 C 291.240 379.200,291.600 379.020,291.600 378.800 C 291.600 378.580,291.836 378.400,292.125 378.400 C 292.413 378.400,293.036 378.040,293.508 377.600 C 293.980 377.160,294.644 376.800,294.983 376.800 C 295.322 376.800,295.600 376.620,295.600 376.400 C 295.600 376.180,295.960 376.000,296.400 376.000 C 296.840 376.000,297.200 375.820,297.200 375.600 C 297.200 375.380,297.487 375.200,297.838 375.200 C 298.413 375.200,300.700 374.108,301.200 373.595 C 301.310 373.482,302.255 372.958,303.300 372.432 C 304.345 371.905,305.200 371.323,305.200 371.137 C 305.200 370.952,305.436 370.800,305.725 370.800 C 306.013 370.800,306.636 370.440,307.108 370.000 C 307.580 369.560,308.154 369.200,308.383 369.200 C 308.612 369.200,308.800 369.020,308.800 368.800 C 308.800 368.580,309.036 368.400,309.325 368.400 C 309.613 368.400,310.236 368.040,310.708 367.600 C 311.180 367.160,311.756 366.800,311.987 366.800 C 312.218 366.800,312.972 366.260,313.663 365.600 C 314.354 364.940,315.122 364.400,315.371 364.400 C 315.620 364.400,316.083 364.040,316.400 363.600 C 316.717 363.160,317.209 362.800,317.492 362.800 C 317.775 362.800,318.572 362.260,319.263 361.600 C 319.954 360.940,320.696 360.400,320.912 360.400 C 321.129 360.400,321.597 360.083,321.953 359.696 C 322.309 359.308,323.320 358.458,324.200 357.805 C 325.080 357.153,326.213 356.210,326.718 355.710 C 327.223 355.209,327.798 354.800,327.996 354.800 C 328.193 354.800,329.455 353.720,330.800 352.400 C 332.145 351.080,333.413 350.000,333.617 350.000 C 333.822 350.000,335.683 348.271,337.754 346.159 C 339.824 344.046,341.671 342.162,341.859 341.971 C 342.046 341.780,343.865 340.006,345.900 338.028 C 347.935 336.049,349.600 334.268,349.600 334.069 C 349.600 333.870,350.860 332.399,352.400 330.800 C 353.940 329.201,355.200 327.713,355.200 327.493 C 355.200 327.274,355.524 326.803,355.921 326.447 C 356.317 326.091,357.170 325.080,357.816 324.200 C 358.462 323.320,359.308 322.309,359.696 321.953 C 360.083 321.597,360.400 321.129,360.400 320.912 C 360.400 320.696,360.940 319.954,361.600 319.263 C 362.260 318.572,362.800 317.775,362.800 317.492 C 362.800 317.209,363.160 316.717,363.600 316.400 C 364.040 316.083,364.400 315.620,364.400 315.371 C 364.400 315.122,364.940 314.354,365.600 313.663 C 366.260 312.972,366.800 312.218,366.800 311.987 C 366.800 311.756,367.160 311.180,367.600 310.708 C 368.040 310.236,368.400 309.613,368.400 309.325 C 368.400 309.036,368.580 308.800,368.800 308.800 C 369.020 308.800,369.200 308.612,369.200 308.383 C 369.200 308.154,369.560 307.580,370.000 307.108 C 370.440 306.636,370.800 306.013,370.800 305.725 C 370.800 305.436,370.952 305.200,371.137 305.200 C 371.323 305.200,371.905 304.345,372.432 303.300 C 372.958 302.255,373.482 301.310,373.595 301.200 C 374.108 300.700,375.200 298.413,375.200 297.838 C 375.200 297.487,375.380 297.200,375.600 297.200 C 375.820 297.200,376.000 296.840,376.000 296.400 C 376.000 295.960,376.180 295.600,376.400 295.600 C 376.620 295.600,376.800 295.322,376.800 294.983 C 376.800 294.644,377.160 293.980,377.600 293.508 C 378.040 293.036,378.400 292.413,378.400 292.125 C 378.400 291.836,378.580 291.600,378.800 291.600 C 379.020 291.600,379.200 291.240,379.200 290.800 C 379.200 290.360,379.380 290.000,379.600 290.000 C 379.820 290.000,380.000 289.640,380.000 289.200 C 380.000 288.760,380.180 288.400,380.400 288.400 C 380.620 288.400,380.800 288.051,380.800 287.624 C 380.800 287.197,380.980 286.736,381.200 286.600 C 381.420 286.464,381.600 286.003,381.600 285.576 C 381.600 285.149,381.780 284.800,382.000 284.800 C 382.220 284.800,382.400 284.440,382.400 284.000 C 382.400 283.560,382.580 283.200,382.800 283.200 C 383.020 283.200,383.200 282.840,383.200 282.400 C 383.200 281.960,383.380 281.600,383.600 281.600 C 383.820 281.600,384.000 281.240,384.000 280.800 C 384.000 280.360,384.180 280.000,384.400 280.000 C 384.620 280.000,384.800 279.561,384.800 279.024 C 384.800 278.487,384.980 277.936,385.200 277.800 C 385.420 277.664,385.600 277.203,385.600 276.776 C 385.600 276.349,385.780 276.000,386.000 276.000 C 386.220 276.000,386.400 275.728,386.400 275.395 C 386.400 275.062,386.580 274.432,386.800 273.995 C 387.020 273.558,387.380 272.842,387.600 272.405 C 387.820 271.968,388.000 271.248,388.000 270.805 C 388.000 270.362,388.180 270.000,388.400 270.000 C 388.620 270.000,388.800 269.638,388.800 269.195 C 388.800 268.752,388.976 268.077,389.191 267.695 C 389.868 266.492,391.600 260.826,391.600 259.815 C 391.600 259.283,391.780 258.736,392.000 258.600 C 392.220 258.464,392.400 257.823,392.400 257.176 C 392.400 256.529,392.580 256.000,392.800 256.000 C 393.020 256.000,393.200 255.381,393.200 254.624 C 393.200 253.867,393.380 253.136,393.600 253.000 C 393.820 252.864,394.000 252.223,394.000 251.576 C 394.000 250.929,394.180 250.400,394.400 250.400 C 394.620 250.400,394.800 249.680,394.800 248.800 C 394.800 247.920,394.980 247.200,395.200 247.200 C 395.420 247.200,395.600 246.300,395.600 245.200 C 395.600 244.100,395.780 243.200,396.000 243.200 C 396.220 243.200,396.400 242.491,396.400 241.624 C 396.400 240.757,396.580 239.936,396.800 239.800 C 397.020 239.664,397.200 238.663,397.200 237.576 C 397.200 236.489,397.380 235.600,397.600 235.600 C 397.822 235.600,398.000 234.533,398.000 233.200 C 398.000 231.867,398.178 230.800,398.400 230.800 C 398.628 230.800,398.800 229.611,398.800 228.033 C 398.800 226.176,398.964 225.212,399.300 225.100 C 399.693 224.969,399.800 219.591,399.800 200.000 C 399.800 180.409,399.693 175.031,399.300 174.900 C 398.964 174.788,398.800 173.824,398.800 171.967 C 398.800 170.389,398.628 169.200,398.400 169.200 C 398.178 169.200,398.000 168.133,398.000 166.800 C 398.000 165.467,397.822 164.400,397.600 164.400 C 397.380 164.400,397.200 163.511,397.200 162.424 C 397.200 161.337,397.020 160.336,396.800 160.200 C 396.580 160.064,396.400 159.243,396.400 158.376 C 396.400 157.509,396.220 156.800,396.000 156.800 C 395.780 156.800,395.600 155.900,395.600 154.800 C 395.600 153.700,395.420 152.800,395.200 152.800 C 394.980 152.800,394.800 152.181,394.800 151.424 C 394.800 150.667,394.620 149.936,394.400 149.800 C 394.180 149.664,394.000 149.034,394.000 148.400 C 394.000 147.766,393.820 147.136,393.600 147.000 C 393.380 146.864,393.200 146.133,393.200 145.376 C 393.200 144.619,393.020 144.000,392.800 144.000 C 392.580 144.000,392.400 143.471,392.400 142.824 C 392.400 142.177,392.220 141.536,392.000 141.400 C 391.780 141.264,391.600 140.717,391.600 140.185 C 391.600 138.842,389.600 132.756,388.353 130.305 C 388.159 129.923,388.000 129.372,388.000 129.081 C 388.000 128.789,387.640 127.805,387.200 126.894 C 386.760 125.984,386.400 124.960,386.400 124.619 C 386.400 124.279,386.220 124.000,386.000 124.000 C 385.780 124.000,385.600 123.651,385.600 123.224 C 385.600 122.797,385.420 122.336,385.200 122.200 C 384.980 122.064,384.800 121.513,384.800 120.976 C 384.800 120.439,384.620 120.000,384.400 120.000 C 384.180 120.000,384.000 119.640,384.000 119.200 C 384.000 118.760,383.820 118.400,383.600 118.400 C 383.380 118.400,383.200 118.040,383.200 117.600 C 383.200 117.160,383.020 116.800,382.800 116.800 C 382.580 116.800,382.400 116.440,382.400 116.000 C 382.400 115.560,382.220 115.200,382.000 115.200 C 381.780 115.200,381.600 114.851,381.600 114.424 C 381.600 113.997,381.420 113.536,381.200 113.400 C 380.980 113.264,380.800 112.803,380.800 112.376 C 380.800 111.949,380.620 111.600,380.400 111.600 C 380.180 111.600,380.000 111.240,380.000 110.800 C 380.000 110.360,379.820 110.000,379.600 110.000 C 379.380 110.000,379.200 109.655,379.200 109.233 C 379.200 108.812,379.065 108.407,378.900 108.333 C 378.524 108.166,377.225 106.036,376.929 105.100 C 376.807 104.715,376.548 104.400,376.353 104.400 C 376.159 104.400,376.000 104.040,376.000 103.600 C 376.000 103.160,375.820 102.800,375.600 102.800 C 375.380 102.800,375.200 102.521,375.200 102.180 C 375.200 101.558,374.102 99.175,373.644 98.800 C 373.509 98.690,373.129 98.060,372.799 97.400 C 372.470 96.740,371.885 95.851,371.500 95.425 C 371.115 94.998,370.800 94.496,370.800 94.308 C 370.800 94.120,370.440 93.580,370.000 93.108 C 369.560 92.636,369.200 92.013,369.200 91.725 C 369.200 91.436,369.020 91.200,368.800 91.200 C 368.580 91.200,368.400 90.964,368.400 90.675 C 368.400 90.387,368.040 89.764,367.600 89.292 C 367.160 88.820,366.800 88.244,366.800 88.013 C 366.800 87.782,366.260 87.028,365.600 86.337 C 364.940 85.646,364.400 84.878,364.400 84.629 C 364.400 84.380,364.040 83.917,363.600 83.600 C 363.160 83.283,362.800 82.838,362.800 82.612 C 362.799 82.385,362.334 81.660,361.765 81.000 C 361.196 80.340,360.437 79.305,360.079 78.700 C 359.721 78.095,359.291 77.600,359.124 77.600 C 358.957 77.600,358.564 77.105,358.251 76.500 C 357.937 75.895,357.123 74.817,356.440 74.104 C 355.758 73.391,355.200 72.641,355.200 72.439 C 355.200 72.236,354.120 70.973,352.800 69.632 C 351.480 68.292,350.400 67.108,350.400 67.002 C 350.400 66.648,349.025 65.112,346.452 62.592 C 342.708 58.924,341.956 58.167,338.015 54.100 C 336.044 52.065,334.268 50.400,334.069 50.400 C 333.870 50.400,332.656 49.390,331.371 48.155 C 330.086 46.920,328.577 45.617,328.017 45.258 C 326.718 44.426,326.186 44.010,324.999 42.900 C 324.470 42.405,323.920 42.000,323.779 42.000 C 323.637 42.000,323.017 41.460,322.400 40.800 C 321.783 40.140,321.108 39.600,320.899 39.600 C 320.690 39.600,319.954 39.060,319.263 38.400 C 318.572 37.740,317.775 37.200,317.492 37.200 C 317.209 37.200,316.717 36.840,316.400 36.400 C 316.083 35.960,315.620 35.600,315.371 35.600 C 315.122 35.600,314.354 35.060,313.663 34.400 C 312.972 33.740,312.136 33.200,311.804 33.200 C 311.472 33.200,311.200 33.050,311.200 32.868 C 311.200 32.685,310.705 32.280,310.100 31.968 C 309.495 31.655,308.682 31.114,308.293 30.764 C 307.905 30.414,307.095 29.874,306.493 29.564 C 305.892 29.254,304.790 28.595,304.044 28.100 C 303.298 27.605,302.436 27.200,302.127 27.200 C 301.819 27.200,301.180 26.840,300.708 26.400 C 300.236 25.960,299.613 25.600,299.325 25.600 C 299.036 25.600,298.800 25.420,298.800 25.200 C 298.800 24.980,298.440 24.800,298.000 24.800 C 297.560 24.800,297.200 24.620,297.200 24.400 C 297.200 24.180,296.840 24.000,296.400 24.000 C 295.960 24.000,295.600 23.820,295.600 23.600 C 295.600 23.380,295.240 23.200,294.800 23.200 C 294.360 23.200,294.000 23.047,294.000 22.860 C 294.000 22.673,292.785 21.909,291.300 21.162 C 289.815 20.415,288.540 19.668,288.467 19.502 C 288.393 19.336,287.999 19.200,287.590 19.200 C 287.182 19.200,286.736 19.020,286.600 18.800 C 286.464 18.580,286.003 18.400,285.576 18.400 C 285.149 18.400,284.800 18.220,284.800 18.000 C 284.800 17.780,284.440 17.600,284.000 17.600 C 283.560 17.600,283.200 17.420,283.200 17.200 C 283.200 16.980,282.840 16.800,282.400 16.800 C 281.960 16.800,281.600 16.620,281.600 16.400 C 281.600 16.180,281.328 16.000,280.995 16.000 C 280.662 16.000,280.032 15.820,279.595 15.600 C 279.158 15.380,278.442 15.020,278.005 14.800 C 277.568 14.580,276.938 14.400,276.605 14.400 C 276.272 14.400,276.000 14.220,276.000 14.000 C 276.000 13.780,275.728 13.600,275.395 13.600 C 275.062 13.600,274.432 13.420,273.995 13.200 C 273.558 12.980,272.842 12.620,272.405 12.400 C 271.968 12.180,271.336 12.000,271.000 12.000 C 270.664 12.000,269.987 11.792,269.495 11.538 C 267.494 10.504,267.110 10.372,265.391 10.137 C 264.406 10.002,263.600 9.736,263.600 9.546 C 263.600 9.356,263.060 9.200,262.400 9.200 C 261.740 9.200,261.200 9.020,261.200 8.800 C 261.200 8.580,260.660 8.400,260.000 8.400 C 259.340 8.400,258.800 8.220,258.800 8.000 C 258.800 7.780,258.170 7.600,257.400 7.600 C 256.630 7.600,256.000 7.420,256.000 7.200 C 256.000 6.980,255.370 6.800,254.600 6.800 C 253.830 6.800,253.200 6.620,253.200 6.400 C 253.200 6.180,252.570 6.000,251.800 6.000 C 251.030 6.000,250.400 5.820,250.400 5.600 C 250.400 5.380,249.680 5.200,248.800 5.200 C 247.920 5.200,247.200 5.020,247.200 4.800 C 247.200 4.580,246.300 4.400,245.200 4.400 C 244.100 4.400,243.200 4.220,243.200 4.000 C 243.200 3.780,242.480 3.600,241.600 3.600 C 240.720 3.600,240.000 3.420,240.000 3.200 C 240.000 2.980,239.111 2.800,238.024 2.800 C 236.937 2.800,235.936 2.620,235.800 2.400 C 235.664 2.180,234.483 2.000,233.176 2.000 C 231.859 2.000,230.800 1.822,230.800 1.600 C 230.800 1.372,229.611 1.200,228.033 1.200 C 226.218 1.200,225.211 1.033,225.105 0.714 C 224.944 0.233,187.802 -0.118,178.500 0.274 M207.257 85.098 C 212.091 87.481,215.539 92.118,216.403 97.400 C 216.645 98.879,216.796 119.291,216.798 150.617 L 216.800 201.434 256.907 241.617 C 291.191 275.966,297.166 282.119,298.052 284.000 C 304.926 298.575,290.962 313.321,276.481 306.780 C 273.595 305.476,188.771 221.487,186.011 217.200 C 183.195 212.825,183.400 217.789,183.400 154.000 L 183.400 96.600 184.329 94.299 C 188.029 85.136,198.669 80.866,207.257 85.098 " stroke="none" fill="#2494f4" fill-rule="evenodd"></path></g></svg>