<svg width="27" height="28" viewBox="0 0 27 28" fill="none" xmlns="http://www.w3.org/2000/svg">
<path d="M19.0392 5.71703C21.1745 6.03733 22.9895 7.05159 24.3241 8.75983C25.6052 10.3613 26.2458 12.2297 26.1924 14.2582C26.1391 15.6995 25.9789 17.1409 25.6052 18.5288C24.7511 21.625 23.1496 24.3475 20.8008 26.4828C19.3595 27.764 17.6513 28.191 15.7295 27.9241C14.9288 27.8173 14.1814 27.5504 13.3807 27.3369C13.2205 27.2835 13.0604 27.2835 12.9002 27.3369C12.313 27.4971 11.7258 27.6572 11.1386 27.764C9.11007 28.2444 7.29507 27.8707 5.64022 26.5362C4.99963 26.0557 4.51919 25.4685 3.98536 24.8279C2.43727 23.0129 1.36963 20.931 0.675654 18.6356C0.301977 17.4078 0.0884472 16.1266 0.0350648 14.8454C-0.0183176 14.0447 -0.0183185 13.2973 0.0884464 12.4966C0.408741 10.5214 1.31624 8.86659 2.81095 7.58542C4.67933 5.93056 6.92139 5.34335 9.37698 5.5035C10.2845 5.55688 11.192 5.71703 12.0995 5.93056C12.2596 5.98394 12.313 5.93056 12.313 5.77041C12.313 5.45012 12.2596 5.07644 12.2063 4.75615C11.886 3.42159 11.1386 2.35394 9.91081 1.65997C9.6439 1.49982 9.6439 1.49982 9.80405 1.23291C9.96419 0.912616 10.1243 0.592321 10.2845 0.272026C10.3379 0.111879 10.4446 0.111879 10.5514 0.165262C10.7649 0.325409 10.9785 0.432173 11.192 0.592321C12.0461 1.17953 12.6867 1.92688 13.1671 2.83438C13.2739 2.99453 13.2739 2.99453 13.3807 2.83438C13.5408 2.56747 13.7543 2.35394 13.9679 2.14041C15.3024 0.752468 16.9573 0.0584965 18.8791 0.00511407C20.0001 -0.0482683 21.0144 0.325409 22.082 0.699086C22.1888 0.752468 22.1888 0.805851 22.1354 0.912615C21.6016 1.71335 21.0677 2.46071 20.3204 3.10129C19.0926 4.11556 17.6513 4.70277 15.9964 4.75615C15.2491 4.75615 14.5551 4.64938 13.8611 4.43585C13.7543 4.38247 13.701 4.38247 13.701 4.54262C13.8077 4.96968 13.8611 5.39674 13.8077 5.77041C13.8077 5.87718 13.8611 5.87718 13.9679 5.87718C15.1423 5.55688 16.3701 5.39674 17.8114 5.39674C18.1317 5.61027 18.5588 5.66365 19.0392 5.71703ZM7.66875 8.75983C6.44095 8.91998 5.42669 9.4538 4.57257 10.3613C3.66507 11.3222 3.18463 12.4432 3.13124 13.7778C3.13124 14.0981 3.18463 14.4184 3.45154 14.6319C3.71845 14.8454 3.98536 14.8454 4.30566 14.6853C4.57257 14.5251 4.73272 14.3116 4.73272 13.9913C4.73272 13.5642 4.7861 13.1906 4.94625 12.8169C5.48007 11.3222 6.81463 10.3613 8.46949 10.3079C8.89655 10.3079 9.16345 10.041 9.21684 9.66733C9.27022 9.24027 9.05669 8.86659 8.68301 8.75983C8.52286 8.70645 8.4161 8.75983 8.25596 8.70645C8.04243 8.70645 7.88228 8.75983 7.66875 8.75983Z" fill="#9DD654"/>
</svg>
