<svg width="103" height="36" viewBox="0 0 103 36" fill="none" xmlns="http://www.w3.org/2000/svg">
<path fill-rule="evenodd" clip-rule="evenodd" d="M25.3245 12.0112V12H16.3201C16.1432 12 16 12.1432 16 12.3201V14.6312C16 14.8081 16.1432 14.9513 16.3201 14.9513H25.3245V14.9401C25.3931 14.9225 25.4539 14.8827 25.4973 14.8268C25.5408 14.771 25.5644 14.7022 25.5646 14.6314V12.3199C25.5646 12.1709 25.4624 12.047 25.3245 12.0112ZM31.6799 16.9057H16.3201C16.1432 16.9057 16 17.049 16 17.2258V19.537C16 19.7138 16.1432 19.857 16.3201 19.857H31.6799C31.8568 19.857 32 19.7138 32 19.537V17.2256C32 17.049 31.8568 16.9057 31.6799 16.9057ZM16.3201 21.7856H27.36C27.5368 21.7856 27.68 21.9289 27.68 22.1057V24.4169C27.68 24.5937 27.5368 24.7369 27.36 24.7369H16.3201C16.1432 24.7369 16 24.5937 16 24.4169V22.1057C16 21.9289 16.1432 21.7856 16.3201 21.7856Z" fill="#B6B1A1"/>
<path d="M47.8543 13.576C48.7423 13.576 49.5183 13.752 50.1823 14.104C50.8463 14.456 51.3583 14.952 51.7183 15.592C52.0863 16.224 52.2703 16.956 52.2703 17.788C52.2703 18.612 52.0863 19.344 51.7183 19.984C51.3583 20.624 50.8423 21.12 50.1703 21.472C49.5063 21.824 48.7343 22 47.8543 22H44.6983V13.576H47.8543ZM47.7223 20.224C48.4983 20.224 49.1023 20.012 49.5343 19.588C49.9663 19.164 50.1823 18.564 50.1823 17.788C50.1823 17.012 49.9663 16.408 49.5343 15.976C49.1023 15.544 48.4983 15.328 47.7223 15.328H46.7503V20.224H47.7223ZM59.7291 18.544C59.7291 18.736 59.7171 18.936 59.6931 19.144H55.0491C55.0811 19.56 55.2131 19.88 55.4451 20.104C55.6851 20.32 55.9771 20.428 56.3211 20.428C56.8331 20.428 57.1891 20.212 57.3891 19.78H59.5731C59.4611 20.22 59.2571 20.616 58.9611 20.968C58.6731 21.32 58.3091 21.596 57.8691 21.796C57.4291 21.996 56.9371 22.096 56.3931 22.096C55.7371 22.096 55.1531 21.956 54.6411 21.676C54.1291 21.396 53.7291 20.996 53.4411 20.476C53.1531 19.956 53.0091 19.348 53.0091 18.652C53.0091 17.956 53.1491 17.348 53.4291 16.828C53.7171 16.308 54.1171 15.908 54.6291 15.628C55.1411 15.348 55.7291 15.208 56.3931 15.208C57.0411 15.208 57.6171 15.344 58.1211 15.616C58.6251 15.888 59.0171 16.276 59.2971 16.78C59.5851 17.284 59.7291 17.872 59.7291 18.544ZM57.6291 18.004C57.6291 17.652 57.5091 17.372 57.2691 17.164C57.0291 16.956 56.7291 16.852 56.3691 16.852C56.0251 16.852 55.7331 16.952 55.4931 17.152C55.2611 17.352 55.1171 17.636 55.0611 18.004H57.6291ZM64.5436 20.26V22H63.4996C62.7556 22 62.1756 21.82 61.7596 21.46C61.3436 21.092 61.1356 20.496 61.1356 19.672V17.008H60.3196V15.304H61.1356V13.672H63.1876V15.304H64.5316V17.008H63.1876V19.696C63.1876 19.896 63.2356 20.04 63.3316 20.128C63.4276 20.216 63.5876 20.26 63.8116 20.26H64.5436ZM65.2786 18.64C65.2786 17.952 65.4066 17.348 65.6626 16.828C65.9266 16.308 66.2826 15.908 66.7306 15.628C67.1786 15.348 67.6786 15.208 68.2306 15.208C68.7026 15.208 69.1146 15.304 69.4666 15.496C69.8266 15.688 70.1026 15.94 70.2946 16.252V15.304H72.3466V22H70.2946V21.052C70.0946 21.364 69.8146 21.616 69.4546 21.808C69.1026 22 68.6906 22.096 68.2186 22.096C67.6746 22.096 67.1786 21.956 66.7306 21.676C66.2826 21.388 65.9266 20.984 65.6626 20.464C65.4066 19.936 65.2786 19.328 65.2786 18.64ZM70.2946 18.652C70.2946 18.14 70.1506 17.736 69.8626 17.44C69.5826 17.144 69.2386 16.996 68.8306 16.996C68.4226 16.996 68.0746 17.144 67.7866 17.44C67.5066 17.728 67.3666 18.128 67.3666 18.64C67.3666 19.152 67.5066 19.56 67.7866 19.864C68.0746 20.16 68.4226 20.308 68.8306 20.308C69.2386 20.308 69.5826 20.16 69.8626 19.864C70.1506 19.568 70.2946 19.164 70.2946 18.652ZM74.8632 14.608C74.5032 14.608 74.2072 14.504 73.9752 14.296C73.7512 14.08 73.6392 13.816 73.6392 13.504C73.6392 13.184 73.7512 12.92 73.9752 12.712C74.2072 12.496 74.5032 12.388 74.8632 12.388C75.2152 12.388 75.5032 12.496 75.7272 12.712C75.9592 12.92 76.0752 13.184 76.0752 13.504C76.0752 13.816 75.9592 14.08 75.7272 14.296C75.5032 14.504 75.2152 14.608 74.8632 14.608ZM75.8832 15.304V22H73.8312V15.304H75.8832ZM79.4222 13.12V22H77.3702V13.12H79.4222ZM83.6333 22.096C83.0493 22.096 82.5293 21.996 82.0733 21.796C81.6173 21.596 81.2573 21.324 80.9933 20.98C80.7293 20.628 80.5813 20.236 80.5493 19.804H82.5773C82.6013 20.036 82.7093 20.224 82.9013 20.368C83.0933 20.512 83.3293 20.584 83.6093 20.584C83.8653 20.584 84.0613 20.536 84.1973 20.44C84.3413 20.336 84.4133 20.204 84.4133 20.044C84.4133 19.852 84.3133 19.712 84.1133 19.624C83.9133 19.528 83.5893 19.424 83.1413 19.312C82.6613 19.2 82.2613 19.084 81.9413 18.964C81.6213 18.836 81.3453 18.64 81.1133 18.376C80.8813 18.104 80.7653 17.74 80.7653 17.284C80.7653 16.9 80.8693 16.552 81.0773 16.24C81.2933 15.92 81.6053 15.668 82.0133 15.484C82.4293 15.3 82.9213 15.208 83.4893 15.208C84.3293 15.208 84.9893 15.416 85.4693 15.832C85.9573 16.248 86.2373 16.8 86.3093 17.488H84.4133C84.3813 17.256 84.2773 17.072 84.1013 16.936C83.9333 16.8 83.7093 16.732 83.4293 16.732C83.1893 16.732 83.0053 16.78 82.8773 16.876C82.7493 16.964 82.6853 17.088 82.6853 17.248C82.6853 17.44 82.7853 17.584 82.9853 17.68C83.1933 17.776 83.5133 17.872 83.9453 17.968C84.4413 18.096 84.8453 18.224 85.1573 18.352C85.4693 18.472 85.7413 18.672 85.9733 18.952C86.2133 19.224 86.3373 19.592 86.3453 20.056C86.3453 20.448 86.2333 20.8 86.0093 21.112C85.7933 21.416 85.4773 21.656 85.0613 21.832C84.6533 22.008 84.1773 22.096 83.6333 22.096Z" fill="#B6B1A1"/>
<rect x="1" y="1" width="100.954" height="34" rx="3" stroke="#B6B1A1" stroke-width="2"/>
</svg>
