<svg width="30" height="30" viewBox="0 0 30 30" fill="none" xmlns="http://www.w3.org/2000/svg">
<path d="M12.3001 3.02727C10.691 4.63636 9.70921 6.65455 9.40921 8.75455C7.06376 8.97273 4.82739 9.95455 3.02739 11.7545C-1.00897 15.7909 -1.00897 22.3909 3.0274 26.4273C7.06376 30.4636 13.6638 30.4636 17.7001 26.4273C19.3092 24.8182 20.291 22.8 20.6183 20.6727C22.9365 20.4818 25.2001 19.4727 26.9728 17.7C31.0092 13.6636 31.0092 7.06364 26.9729 3.02727C22.9365 -1.00909 16.3365 -1.00909 12.3001 3.02727ZM18.3547 18.3C16.7456 18.0545 15.1638 17.2909 13.9092 16.0364C12.5456 14.6727 11.7547 12.9 11.591 11.1C11.5638 10.6909 11.5638 10.3091 11.5638 9.92727C13.5001 10.1727 15.3547 11.0455 16.8547 12.5455C18.491 14.1818 19.3638 16.2545 19.5274 18.3818C19.1456 18.3818 18.7638 18.3818 18.3547 18.3ZM16.0365 24.7636C12.9001 27.9 7.77285 27.9 4.63649 24.7636C1.50012 21.6273 1.50012 16.5 4.63649 13.3636C5.94558 12.0545 7.58194 11.2909 9.27285 11.0727C9.43649 13.4727 10.4456 15.8455 12.2728 17.6727C13.9365 19.3364 16.0638 20.3182 18.2183 20.6182C17.9456 22.1455 17.2092 23.5909 16.0365 24.7636Z" fill="#76C6CB"/>
</svg>
