<svg width="30" height="30" viewBox="0 0 30 30" fill="none" xmlns="http://www.w3.org/2000/svg">
<path fill-rule="evenodd" clip-rule="evenodd" d="M0 15C0 6.729 6.729 0 15 0C23.271 0 30 6.729 30 15C30 23.271 23.271 30 15 30C6.729 30 0 23.271 0 15ZM10.875 12.1238C11.0143 12.588 11.4399 12.888 11.901 12.888C12.003 12.888 12.1067 12.8734 12.2087 12.8426C12.7757 12.6728 13.0972 12.0758 12.9275 11.5088C12.516 10.1366 11.2826 9.21427 9.8576 9.21427C8.4326 9.21427 7.19874 10.1361 6.78774 11.5088C6.61803 12.0754 6.93946 12.6728 7.50646 12.8426C8.07217 13.0114 8.67046 12.6904 8.84017 12.1238C8.97817 11.6648 9.3866 11.3567 9.8576 11.3567C10.3286 11.3567 10.7375 11.6648 10.875 12.1238ZM22.1851 12.888C21.7239 12.888 21.2983 12.588 21.1591 12.1239C21.0215 11.6653 20.6131 11.3567 20.1421 11.3567C19.6711 11.3567 19.2622 11.6653 19.1246 12.1243C18.9545 12.6913 18.3562 13.0123 17.7909 12.8426C17.2239 12.6729 16.9025 12.0754 17.0722 11.5084C17.4836 10.1362 18.7175 9.21387 20.1421 9.21387C21.5671 9.21387 22.8005 10.1362 23.2115 11.5089C23.3812 12.0759 23.0598 12.6729 22.4923 12.8426C22.3908 12.8734 22.2866 12.888 22.1851 12.888ZM21.5373 18.75H8.46288C7.78421 18.75 7.31737 19.3579 7.56919 19.9162C8.74701 22.5289 11.63 24.375 14.9999 24.375C18.3702 24.375 21.2528 22.5289 22.4307 19.9162C22.6828 19.3579 22.216 18.75 21.5373 18.75Z" fill="#D8B36D"/>
</svg>
