<svg width="24" height="24" viewBox="0 0 24 24" fill="none" xmlns="http://www.w3.org/2000/svg">
<path d="M11.9888 0.75C5.77875 0.75 0.75 5.79 0.75 12C0.75 18.21 5.77875 23.25 11.9888 23.25C18.21 23.25 23.25 18.21 23.25 12C23.25 5.79 18.21 0.75 11.9888 0.75ZM16.5 16.5C16.3959 16.6043 16.2723 16.687 16.1362 16.7435C16.0001 16.7999 15.8542 16.829 15.7069 16.829C15.5595 16.829 15.4136 16.7999 15.2775 16.7435C15.1415 16.687 15.0178 16.6043 14.9138 16.5L11.2125 12.7987C11.1062 12.6946 11.0216 12.5703 10.9637 12.4332C10.9058 12.2961 10.8756 12.1488 10.875 12V7.5C10.875 6.88125 11.3813 6.375 12 6.375C12.6187 6.375 13.125 6.88125 13.125 7.5V11.5388L16.5 14.9138C16.9387 15.3525 16.9387 16.0612 16.5 16.5Z" fill="#CDCABC"/>
</svg>
