<svg width="32" height="27" viewBox="0 0 32 27" fill="none" xmlns="http://www.w3.org/2000/svg">
<path fill-rule="evenodd" clip-rule="evenodd" d="M15.561 8.23625C15.561 3.67931 19.2403 0 23.7973 0C28.3542 0 32.0335 3.67931 31.9998 8.23625C31.9998 12.7932 28.3205 16.4725 23.7635 16.4725C22.4471 16.4725 21.1306 16.1687 19.9829 15.5611L15.9323 16.8101C15.8648 16.8438 15.8311 16.8438 15.7635 16.8438C15.6285 16.8438 15.4598 16.7763 15.3585 16.675C15.2235 16.54 15.156 16.3037 15.2235 16.1012L16.4724 12.0168C15.8648 10.8354 15.561 9.5527 15.561 8.23625ZM23.831 10.8692L27.5441 7.15609C27.9492 6.71727 27.9492 6.00841 27.5441 5.60335C27.1053 5.16453 26.4302 5.16453 25.9914 5.60335L23.0547 8.54005L21.8732 7.35862C21.4344 6.9198 20.7593 6.9198 20.3205 7.35862C19.8817 7.79743 19.8817 8.47254 20.3205 8.91135L22.2783 10.8692C22.4808 11.0717 22.7846 11.1729 23.0547 11.1729C23.3247 11.1729 23.6285 11.0717 23.831 10.8692ZM8.03366 17.5527C10.7368 17.5527 12.9282 15.3613 12.9282 12.6582C12.9282 9.95503 10.7368 7.76369 8.03366 7.76369C5.33051 7.76369 3.13917 9.95503 3.13917 12.6582C3.13917 15.3613 5.33051 17.5527 8.03366 17.5527ZM13.9409 18.9704C13.4008 18.5991 12.5569 18.3291 11.578 18.1603C10.5654 18.8016 9.35017 19.1729 8.06748 19.1729C6.78478 19.1729 5.5696 18.8016 4.55694 18.1603C3.54429 18.3291 2.70041 18.5991 2.19408 18.9704C0.236286 20.3206 0.0337551 24.54 0 25.3501C0 25.5864 0.101265 25.8565 0.270041 26.0252C0.438817 26.194 0.708858 26.2953 0.945144 26.2953H15.1898C15.4598 26.2953 15.6961 26.194 15.8649 26.0252C16.0337 25.8565 16.135 25.5864 16.135 25.3501C16.1012 24.54 15.8987 20.2869 13.9409 18.9704Z" fill="#4BB061"/>
</svg>
