<svg width="44" height="43" viewBox="0 0 44 43" fill="none" xmlns="http://www.w3.org/2000/svg">
<path d="M33.0655 27.754C37.2234 27.1117 41.7116 29.5239 41.9007 29.6271C42.0582 29.7128 42.19 29.8404 42.282 29.9961C42.3741 30.1518 42.423 30.3298 42.4234 30.5111C42.4238 30.6924 42.3757 30.8701 42.2843 31.0252C42.1929 31.1803 42.0617 31.307 41.9046 31.3917C39.7562 32.5868 37.6765 33.9046 35.6754 35.339C34.7246 36.0255 33.6273 36.4739 32.472 36.6481C30.7477 36.8724 28.9934 36.6392 27.379 35.9713C27.379 35.9713 25.8678 35.5272 25.8651 34.5276C25.8637 34.0278 26.8498 32.5454 26.8498 32.5454C26.8498 32.5454 28.2901 30.2013 29.3728 29.3667C30.4555 28.5321 31.7228 27.9787 33.0655 27.754Z" fill="#302500"/>
<path d="M12.524 31.0147C13.896 31.2124 16.3225 32.5532 16.3225 32.5532L17.5205 35.8061C16.4066 37.1821 14.956 38.247 13.3094 38.8975C12.1944 39.3126 10.9974 39.4595 9.81516 39.3266C7.33198 39.0551 4.83539 38.9248 2.33744 38.9362C2.15618 38.9393 1.97749 38.8931 1.82049 38.8024C1.66349 38.7118 1.53408 38.5802 1.44611 38.4216C1.35814 38.2631 1.31491 38.0837 1.32105 37.9025C1.3272 37.7213 1.38248 37.5452 1.48098 37.393C1.59929 37.2102 4.42531 32.8989 8.44566 31.4186C9.75232 30.9557 11.1519 30.8171 12.524 31.0147Z" fill="#302500"/>
<mask id="path-3-outside-1" maskUnits="userSpaceOnUse" x="29.5327" y="19.606" width="10" height="9" fill="black">
<rect fill="white" x="29.5327" y="19.606" width="10" height="9"/>
<path d="M35.0388 26.2671C35.9924 26.2838 36.9273 26.0011 37.7119 25.4588C37.5396 24.5207 37.0786 23.6607 36.3929 22.9978C35.7072 22.3349 34.8313 21.903 33.888 21.7625L32.8308 21.606C32.8187 21.6568 32.8054 21.7094 32.7917 21.763C32.6679 22.2598 32.5061 22.7465 32.3078 23.2186C32.193 23.4957 32.0695 23.7618 31.9386 24.0158C31.8874 24.1152 31.8301 24.2036 31.7766 24.2992C31.6961 24.4429 31.6182 24.5916 31.5327 24.726L32.3956 25.3656C33.1607 25.9351 34.0851 26.2504 35.0388 26.2671Z"/>
</mask>
<path d="M35.0388 26.2671C35.9924 26.2838 36.9273 26.0011 37.7119 25.4588C37.5396 24.5207 37.0786 23.6607 36.3929 22.9978C35.7072 22.3349 34.8313 21.903 33.888 21.7625L32.8308 21.606C32.8187 21.6568 32.8054 21.7094 32.7917 21.763C32.6679 22.2598 32.5061 22.7465 32.3078 23.2186C32.193 23.4957 32.0695 23.7618 31.9386 24.0158C31.8874 24.1152 31.8301 24.2036 31.7766 24.2992C31.6961 24.4429 31.6182 24.5916 31.5327 24.726L32.3956 25.3656C33.1607 25.9351 34.0851 26.2504 35.0388 26.2671Z" fill="#F3BE00"/>
<path d="M35.0388 26.2671C35.9924 26.2838 36.9273 26.0011 37.7119 25.4588C37.5396 24.5207 37.0786 23.6607 36.3929 22.9978C35.7072 22.3349 34.8313 21.903 33.888 21.7625L32.8308 21.606C32.8187 21.6568 32.8054 21.7094 32.7917 21.763C32.6679 22.2598 32.5061 22.7465 32.3078 23.2186C32.193 23.4957 32.0695 23.7618 31.9386 24.0158C31.8874 24.1152 31.8301 24.2036 31.7766 24.2992C31.6961 24.4429 31.6182 24.5916 31.5327 24.726L32.3956 25.3656C33.1607 25.9351 34.0851 26.2504 35.0388 26.2671Z" stroke="#302500" stroke-width="3" stroke-linejoin="round" mask="url(#path-3-outside-1)"/>
<mask id="path-4-outside-2" maskUnits="userSpaceOnUse" x="4.27734" y="9.72137" width="10" height="9" fill="black">
<rect fill="white" x="4.27734" y="9.72137" width="10" height="9"/>
<path d="M8.95044 11.7221C7.9968 11.7054 7.06193 11.9881 6.27734 12.5304C6.44961 13.4684 6.91065 14.3284 7.59634 14.9913C8.28204 15.6543 9.15786 16.0862 10.1012 16.2267L11.1584 16.3832C11.1705 16.3323 11.1838 16.2797 11.1975 16.2262C11.3213 15.7293 11.4831 15.2427 11.6814 14.7706C11.7962 14.4934 11.9198 14.2273 12.0506 13.9734C12.1018 13.874 12.1591 13.7856 12.2126 13.69C12.2931 13.5462 12.371 13.3975 12.4565 13.2631L11.5936 12.6235C10.8285 12.054 9.90407 11.7388 8.95044 11.7221Z"/>
</mask>
<path d="M8.95044 11.7221C7.9968 11.7054 7.06193 11.9881 6.27734 12.5304C6.44961 13.4684 6.91065 14.3284 7.59634 14.9913C8.28204 15.6543 9.15786 16.0862 10.1012 16.2267L11.1584 16.3832C11.1705 16.3323 11.1838 16.2797 11.1975 16.2262C11.3213 15.7293 11.4831 15.2427 11.6814 14.7706C11.7962 14.4934 11.9198 14.2273 12.0506 13.9734C12.1018 13.874 12.1591 13.7856 12.2126 13.69C12.2931 13.5462 12.371 13.3975 12.4565 13.2631L11.5936 12.6235C10.8285 12.054 9.90407 11.7388 8.95044 11.7221Z" fill="#F3BE00"/>
<path d="M8.95044 11.7221C7.9968 11.7054 7.06193 11.9881 6.27734 12.5304C6.44961 13.4684 6.91065 14.3284 7.59634 14.9913C8.28204 15.6543 9.15786 16.0862 10.1012 16.2267L11.1584 16.3832C11.1705 16.3323 11.1838 16.2797 11.1975 16.2262C11.3213 15.7293 11.4831 15.2427 11.6814 14.7706C11.7962 14.4934 11.9198 14.2273 12.0506 13.9734C12.1018 13.874 12.1591 13.7856 12.2126 13.69C12.2931 13.5462 12.371 13.3975 12.4565 13.2631L11.5936 12.6235C10.8285 12.054 9.90407 11.7388 8.95044 11.7221Z" stroke="#302500" stroke-width="3" stroke-linejoin="round" mask="url(#path-4-outside-2)"/>
<mask id="path-5-outside-3" maskUnits="userSpaceOnUse" x="12.7214" y="26.5327" width="9" height="10" fill="black">
<rect fill="white" x="12.7214" y="26.5327" width="9" height="10"/>
<path d="M14.7221 32.0387C14.7054 32.9924 14.9881 33.9272 15.5304 34.7118C16.4685 34.5396 17.3285 34.0785 17.9914 33.3928C18.6543 32.7071 19.0862 31.8313 19.2267 30.888L19.3832 29.8308C19.3324 29.8187 19.2798 29.8054 19.2263 29.7916C18.7294 29.6679 18.2427 29.5061 17.7706 29.3078C17.4935 29.1929 17.2274 29.0694 16.9734 28.9386C16.8741 28.8874 16.7856 28.8301 16.69 28.7766C16.5463 28.6961 16.3976 28.6181 16.2632 28.5327L15.6236 29.3956C15.0541 30.1607 14.7388 31.0851 14.7221 32.0387Z"/>
</mask>
<path d="M14.7221 32.0387C14.7054 32.9924 14.9881 33.9272 15.5304 34.7118C16.4685 34.5396 17.3285 34.0785 17.9914 33.3928C18.6543 32.7071 19.0862 31.8313 19.2267 30.888L19.3832 29.8308C19.3324 29.8187 19.2798 29.8054 19.2263 29.7916C18.7294 29.6679 18.2427 29.5061 17.7706 29.3078C17.4935 29.1929 17.2274 29.0694 16.9734 28.9386C16.8741 28.8874 16.7856 28.8301 16.69 28.7766C16.5463 28.6961 16.3976 28.6181 16.2632 28.5327L15.6236 29.3956C15.0541 30.1607 14.7388 31.0851 14.7221 32.0387Z" fill="#F3BE00"/>
<path d="M14.7221 32.0387C14.7054 32.9924 14.9881 33.9272 15.5304 34.7118C16.4685 34.5396 17.3285 34.0785 17.9914 33.3928C18.6543 32.7071 19.0862 31.8313 19.2267 30.888L19.3832 29.8308C19.3324 29.8187 19.2798 29.8054 19.2263 29.7916C18.7294 29.6679 18.2427 29.5061 17.7706 29.3078C17.4935 29.1929 17.2274 29.0694 16.9734 28.9386C16.8741 28.8874 16.7856 28.8301 16.69 28.7766C16.5463 28.6961 16.3976 28.6181 16.2632 28.5327L15.6236 29.3956C15.0541 30.1607 14.7388 31.0851 14.7221 32.0387Z" stroke="#302500" stroke-width="3" stroke-linejoin="round" mask="url(#path-5-outside-3)"/>
<mask id="path-6-outside-4" maskUnits="userSpaceOnUse" x="22.606" y="1.27731" width="9" height="10" fill="black">
<rect fill="white" x="22.606" y="1.27731" width="9" height="10"/>
<path d="M29.267 5.95041C29.2837 4.99677 29.0011 4.0619 28.4587 3.27731C27.5207 3.44958 26.6607 3.91061 25.9978 4.59631C25.3349 5.28201 24.9029 6.15783 24.7624 7.10118L24.606 8.15837C24.6568 8.17045 24.7094 8.18379 24.7629 8.19752C25.2598 8.32129 25.7465 8.48306 26.2186 8.6814C26.4957 8.7962 26.7618 8.91973 27.0158 9.05057C27.1151 9.1018 27.2035 9.15909 27.2991 9.21255C27.4429 9.29308 27.5916 9.37102 27.726 9.45647L28.3656 8.59355C28.9351 7.82843 29.2503 6.90404 29.267 5.95041Z"/>
</mask>
<path d="M29.267 5.95041C29.2837 4.99677 29.0011 4.0619 28.4587 3.27731C27.5207 3.44958 26.6607 3.91061 25.9978 4.59631C25.3349 5.28201 24.9029 6.15783 24.7624 7.10118L24.606 8.15837C24.6568 8.17045 24.7094 8.18379 24.7629 8.19752C25.2598 8.32129 25.7465 8.48306 26.2186 8.6814C26.4957 8.7962 26.7618 8.91973 27.0158 9.05057C27.1151 9.1018 27.2035 9.15909 27.2991 9.21255C27.4429 9.29308 27.5916 9.37102 27.726 9.45647L28.3656 8.59355C28.9351 7.82843 29.2503 6.90404 29.267 5.95041Z" fill="#F3BE00"/>
<path d="M29.267 5.95041C29.2837 4.99677 29.0011 4.0619 28.4587 3.27731C27.5207 3.44958 26.6607 3.91061 25.9978 4.59631C25.3349 5.28201 24.9029 6.15783 24.7624 7.10118L24.606 8.15837C24.6568 8.17045 24.7094 8.18379 24.7629 8.19752C25.2598 8.32129 25.7465 8.48306 26.2186 8.6814C26.4957 8.7962 26.7618 8.91973 27.0158 9.05057C27.1151 9.1018 27.2035 9.15909 27.2991 9.21255C27.4429 9.29308 27.5916 9.37102 27.726 9.45647L28.3656 8.59355C28.9351 7.82843 29.2503 6.90404 29.267 5.95041Z" stroke="#302500" stroke-width="3" stroke-linejoin="round" mask="url(#path-6-outside-4)"/>
<mask id="path-7-outside-5" maskUnits="userSpaceOnUse" x="4.31006" y="19.6863" width="10" height="9" fill="black">
<rect fill="white" x="4.31006" y="19.6863" width="10" height="9"/>
<path d="M7.62866 23.0758C6.94253 23.7383 6.48137 24.5992 6.31006 25.5375C7.09518 26.079 8.02928 26.3611 8.98289 26.345C9.93651 26.3289 10.8612 26.015 11.6276 25.4473L12.4858 24.8104C12.4584 24.7659 12.4306 24.7193 12.4025 24.6717C12.1387 24.2329 11.9089 23.7744 11.7154 23.3003C11.6006 23.0231 11.4998 22.7476 11.4127 22.4755C11.3787 22.3691 11.3567 22.266 11.3269 22.1606C11.2822 22.002 11.2321 21.8418 11.1975 21.6863L10.1351 21.8442C9.19136 21.9826 8.31479 22.4133 7.62866 23.0758Z"/>
</mask>
<path d="M7.62866 23.0758C6.94253 23.7383 6.48137 24.5992 6.31006 25.5375C7.09518 26.079 8.02928 26.3611 8.98289 26.345C9.93651 26.3289 10.8612 26.015 11.6276 25.4473L12.4858 24.8104C12.4584 24.7659 12.4306 24.7193 12.4025 24.6717C12.1387 24.2329 11.9089 23.7744 11.7154 23.3003C11.6006 23.0231 11.4998 22.7476 11.4127 22.4755C11.3787 22.3691 11.3567 22.266 11.3269 22.1606C11.2822 22.002 11.2321 21.8418 11.1975 21.6863L10.1351 21.8442C9.19136 21.9826 8.31479 22.4133 7.62866 23.0758Z" fill="#F3BE00"/>
<path d="M7.62866 23.0758C6.94253 23.7383 6.48137 24.5992 6.31006 25.5375C7.09518 26.079 8.02928 26.3611 8.98289 26.345C9.93651 26.3289 10.8612 26.015 11.6276 25.4473L12.4858 24.8104C12.4584 24.7659 12.4306 24.7193 12.4025 24.6717C12.1387 24.2329 11.9089 23.7744 11.7154 23.3003C11.6006 23.0231 11.4998 22.7476 11.4127 22.4755C11.3787 22.3691 11.3567 22.266 11.3269 22.1606C11.2822 22.002 11.2321 21.8418 11.1975 21.6863L10.1351 21.8442C9.19136 21.9826 8.31479 22.4133 7.62866 23.0758Z" stroke="#302500" stroke-width="3" stroke-linejoin="round" mask="url(#path-7-outside-5)"/>
<mask id="path-8-outside-6" maskUnits="userSpaceOnUse" x="29.5034" y="9.64355" width="10" height="9" fill="black">
<rect fill="white" x="29.5034" y="9.64355" width="10" height="9"/>
<path d="M36.3606 14.9134C37.0467 14.2509 37.5079 13.39 37.6792 12.4517C36.894 11.9102 35.9599 11.6281 35.0063 11.6442C34.0527 11.6603 33.128 11.9742 32.3616 12.5419L31.5034 13.1788C31.5308 13.2233 31.5586 13.2699 31.5867 13.3175C31.8506 13.7563 32.0803 14.2148 32.2739 14.6889C32.3887 14.9661 32.4895 15.2416 32.5765 15.5137C32.6106 15.6201 32.6326 15.7232 32.6624 15.8286C32.7071 15.9872 32.7571 16.1474 32.7917 16.3029L33.8542 16.145C34.7979 16.0066 35.6744 15.5759 36.3606 14.9134Z"/>
</mask>
<path d="M36.3606 14.9134C37.0467 14.2509 37.5079 13.39 37.6792 12.4517C36.894 11.9102 35.9599 11.6281 35.0063 11.6442C34.0527 11.6603 33.128 11.9742 32.3616 12.5419L31.5034 13.1788C31.5308 13.2233 31.5586 13.2699 31.5867 13.3175C31.8506 13.7563 32.0803 14.2148 32.2739 14.6889C32.3887 14.9661 32.4895 15.2416 32.5765 15.5137C32.6106 15.6201 32.6326 15.7232 32.6624 15.8286C32.7071 15.9872 32.7571 16.1474 32.7917 16.3029L33.8542 16.145C34.7979 16.0066 35.6744 15.5759 36.3606 14.9134Z" fill="#F3BE00"/>
<path d="M36.3606 14.9134C37.0467 14.2509 37.5079 13.39 37.6792 12.4517C36.894 11.9102 35.9599 11.6281 35.0063 11.6442C34.0527 11.6603 33.128 11.9742 32.3616 12.5419L31.5034 13.1788C31.5308 13.2233 31.5586 13.2699 31.5867 13.3175C31.8506 13.7563 32.0803 14.2148 32.2739 14.6889C32.3887 14.9661 32.4895 15.2416 32.5765 15.5137C32.6106 15.6201 32.6326 15.7232 32.6624 15.8286C32.7071 15.9872 32.7571 16.1474 32.7917 16.3029L33.8542 16.145C34.7979 16.0066 35.6744 15.5759 36.3606 14.9134Z" stroke="#302500" stroke-width="3" stroke-linejoin="round" mask="url(#path-8-outside-6)"/>
<mask id="path-9-outside-7" maskUnits="userSpaceOnUse" x="12.6436" y="1.30994" width="9" height="10" fill="black">
<rect fill="white" x="12.6436" y="1.30994" width="9" height="10"/>
<path d="M17.9134 4.62854C17.2509 3.94241 16.39 3.48125 15.4517 3.30994C14.9102 4.09506 14.6281 5.02916 14.6442 5.98277C14.6603 6.93639 14.9742 7.8611 15.5419 8.62749L16.1788 9.48569C16.2233 9.45827 16.2699 9.43052 16.3175 9.40238C16.7563 9.13855 17.2148 8.90882 17.6889 8.71524C17.9661 8.60044 18.2416 8.49964 18.5137 8.41258C18.6201 8.37855 18.7232 8.35655 18.8286 8.32674C18.9872 8.28205 19.1474 8.23202 19.3029 8.19738L19.145 7.13493C19.0066 6.19124 18.5759 5.31467 17.9134 4.62854Z"/>
</mask>
<path d="M17.9134 4.62854C17.2509 3.94241 16.39 3.48125 15.4517 3.30994C14.9102 4.09506 14.6281 5.02916 14.6442 5.98277C14.6603 6.93639 14.9742 7.8611 15.5419 8.62749L16.1788 9.48569C16.2233 9.45827 16.2699 9.43052 16.3175 9.40238C16.7563 9.13855 17.2148 8.90882 17.6889 8.71524C17.9661 8.60044 18.2416 8.49964 18.5137 8.41258C18.6201 8.37855 18.7232 8.35655 18.8286 8.32674C18.9872 8.28205 19.1474 8.23202 19.3029 8.19738L19.145 7.13493C19.0066 6.19124 18.5759 5.31467 17.9134 4.62854Z" fill="#F3BE00"/>
<path d="M17.9134 4.62854C17.2509 3.94241 16.39 3.48125 15.4517 3.30994C14.9102 4.09506 14.6281 5.02916 14.6442 5.98277C14.6603 6.93639 14.9742 7.8611 15.5419 8.62749L16.1788 9.48569C16.2233 9.45827 16.2699 9.43052 16.3175 9.40238C16.7563 9.13855 17.2148 8.90882 17.6889 8.71524C17.9661 8.60044 18.2416 8.49964 18.5137 8.41258C18.6201 8.37855 18.7232 8.35655 18.8286 8.32674C18.9872 8.28205 19.1474 8.23202 19.3029 8.19738L19.145 7.13493C19.0066 6.19124 18.5759 5.31467 17.9134 4.62854Z" stroke="#302500" stroke-width="3" stroke-linejoin="round" mask="url(#path-9-outside-7)"/>
<mask id="path-10-outside-8" maskUnits="userSpaceOnUse" x="22.6863" y="26.5035" width="9" height="10" fill="black">
<rect fill="white" x="22.6863" y="26.5035" width="9" height="10"/>
<path d="M26.0758 33.3607C26.7383 34.0468 27.5992 34.5079 28.5375 34.6793C29.079 33.8941 29.3611 32.96 29.345 32.0064C29.3289 31.0528 29.015 30.1281 28.4473 29.3617L27.8104 28.5035C27.7659 28.5309 27.7193 28.5587 27.6717 28.5868C27.2328 28.8507 26.7743 29.0804 26.3003 29.274C26.0231 29.3888 25.7476 29.4896 25.4755 29.5766C25.369 29.6107 25.266 29.6326 25.1606 29.6625C25.002 29.7071 24.8418 29.7572 24.6863 29.7918L24.8442 30.8543C24.9825 31.798 25.4132 32.6745 26.0758 33.3607Z"/>
</mask>
<path d="M26.0758 33.3607C26.7383 34.0468 27.5992 34.5079 28.5375 34.6793C29.079 33.8941 29.3611 32.96 29.345 32.0064C29.3289 31.0528 29.015 30.1281 28.4473 29.3617L27.8104 28.5035C27.7659 28.5309 27.7193 28.5587 27.6717 28.5868C27.2328 28.8507 26.7743 29.0804 26.3003 29.274C26.0231 29.3888 25.7476 29.4896 25.4755 29.5766C25.369 29.6107 25.266 29.6326 25.1606 29.6625C25.002 29.7071 24.8418 29.7572 24.6863 29.7918L24.8442 30.8543C24.9825 31.798 25.4132 32.6745 26.0758 33.3607Z" fill="#F3BE00"/>
<path d="M26.0758 33.3607C26.7383 34.0468 27.5992 34.5079 28.5375 34.6793C29.079 33.8941 29.3611 32.96 29.345 32.0064C29.3289 31.0528 29.015 30.1281 28.4473 29.3617L27.8104 28.5035C27.7659 28.5309 27.7193 28.5587 27.6717 28.5868C27.2328 28.8507 26.7743 29.0804 26.3003 29.274C26.0231 29.3888 25.7476 29.4896 25.4755 29.5766C25.369 29.6107 25.266 29.6326 25.1606 29.6625C25.002 29.7071 24.8418 29.7572 24.6863 29.7918L24.8442 30.8543C24.9825 31.798 25.4132 32.6745 26.0758 33.3607Z" stroke="#302500" stroke-width="3" stroke-linejoin="round" mask="url(#path-10-outside-8)"/>
<mask id="path-11-outside-9" maskUnits="userSpaceOnUse" x="31" y="14.864" width="10" height="8" fill="black">
<rect fill="white" x="31" y="14.864" width="10" height="8"/>
<path d="M36.8289 20.7217C37.7163 20.3722 38.4719 19.7533 38.9892 18.952C38.4711 18.1513 37.716 17.5332 36.8288 17.1831C35.9416 16.8331 34.9672 16.7692 34.0419 17.0004L33.0053 17.2604C33.0136 17.312 33.0214 17.3657 33.0292 17.4204C33.105 17.9268 33.1418 18.4383 33.1392 18.9504C33.1392 19.2504 33.1269 19.5435 33.1032 19.8282C33.0939 19.9396 33.0748 20.0432 33.062 20.152C33.0426 20.3156 33.0275 20.4828 33 20.6397L34.042 20.9004C34.9668 21.1337 35.9415 21.0712 36.8289 20.7217Z"/>
</mask>
<path d="M36.8289 20.7217C37.7163 20.3722 38.4719 19.7533 38.9892 18.952C38.4711 18.1513 37.716 17.5332 36.8288 17.1831C35.9416 16.8331 34.9672 16.7692 34.0419 17.0004L33.0053 17.2604C33.0136 17.312 33.0214 17.3657 33.0292 17.4204C33.105 17.9268 33.1418 18.4383 33.1392 18.9504C33.1392 19.2504 33.1269 19.5435 33.1032 19.8282C33.0939 19.9396 33.0748 20.0432 33.062 20.152C33.0426 20.3156 33.0275 20.4828 33 20.6397L34.042 20.9004C34.9668 21.1337 35.9415 21.0712 36.8289 20.7217Z" fill="#F3BE00"/>
<path d="M36.8289 20.7217C37.7163 20.3722 38.4719 19.7533 38.9892 18.952C38.4711 18.1513 37.716 17.5332 36.8288 17.1831C35.9416 16.8331 34.9672 16.7692 34.0419 17.0004L33.0053 17.2604C33.0136 17.312 33.0214 17.3657 33.0292 17.4204C33.105 17.9268 33.1418 18.4383 33.1392 18.9504C33.1392 19.2504 33.1269 19.5435 33.1032 19.8282C33.0939 19.9396 33.0748 20.0432 33.062 20.152C33.0426 20.3156 33.0275 20.4828 33 20.6397L34.042 20.9004C34.9668 21.1337 35.9415 21.0712 36.8289 20.7217Z" stroke="#302500" stroke-width="3" stroke-linejoin="round" mask="url(#path-11-outside-9)"/>
<mask id="path-12-outside-10" maskUnits="userSpaceOnUse" x="3" y="14.9502" width="10" height="8" fill="black">
<rect fill="white" x="3" y="14.9502" width="10" height="8"/>
<path d="M7.16029 17.2675C6.27286 17.617 5.51733 18.2359 5 19.0372C5.51814 19.8379 6.27318 20.456 7.16037 20.8061C8.04756 21.1561 9.022 21.22 9.9473 20.9888L10.9839 20.7288C10.9756 20.6772 10.9678 20.6235 10.96 20.5688C10.8842 20.0624 10.8474 19.5509 10.85 19.0388C10.85 18.7388 10.8623 18.4457 10.886 18.161C10.8953 18.0496 10.9144 17.946 10.9272 17.8372C10.9466 17.6736 10.9617 17.5064 10.9892 17.3495L9.9472 17.0888C9.0224 16.8555 8.04772 16.918 7.16029 17.2675Z"/>
</mask>
<path d="M7.16029 17.2675C6.27286 17.617 5.51733 18.2359 5 19.0372C5.51814 19.8379 6.27318 20.456 7.16037 20.8061C8.04756 21.1561 9.022 21.22 9.9473 20.9888L10.9839 20.7288C10.9756 20.6772 10.9678 20.6235 10.96 20.5688C10.8842 20.0624 10.8474 19.5509 10.85 19.0388C10.85 18.7388 10.8623 18.4457 10.886 18.161C10.8953 18.0496 10.9144 17.946 10.9272 17.8372C10.9466 17.6736 10.9617 17.5064 10.9892 17.3495L9.9472 17.0888C9.0224 16.8555 8.04772 16.918 7.16029 17.2675Z" fill="#F3BE00"/>
<path d="M7.16029 17.2675C6.27286 17.617 5.51733 18.2359 5 19.0372C5.51814 19.8379 6.27318 20.456 7.16037 20.8061C8.04756 21.1561 9.022 21.22 9.9473 20.9888L10.9839 20.7288C10.9756 20.6772 10.9678 20.6235 10.96 20.5688C10.8842 20.0624 10.8474 19.5509 10.85 19.0388C10.85 18.7388 10.8623 18.4457 10.886 18.161C10.8953 18.0496 10.9144 17.946 10.9272 17.8372C10.9466 17.6736 10.9617 17.5064 10.9892 17.3495L9.9472 17.0888C9.0224 16.8555 8.04772 16.918 7.16029 17.2675Z" stroke="#302500" stroke-width="3" stroke-linejoin="round" mask="url(#path-12-outside-10)"/>
<mask id="path-13-outside-11" maskUnits="userSpaceOnUse" x="18.1252" y="28" width="8" height="10" fill="black">
<rect fill="white" x="18.1252" y="28" width="8" height="10"/>
<path d="M20.2675 33.8289C20.617 34.7163 21.236 35.4719 22.0372 35.9892C22.838 35.4711 23.4561 34.716 23.8061 33.8288C24.1562 32.9416 24.22 31.9672 23.9888 31.0419L23.7288 30.0053C23.6772 30.0136 23.6235 30.0214 23.5688 30.0292C23.0624 30.105 22.5509 30.1418 22.0388 30.1392C21.7388 30.1392 21.4457 30.1269 21.161 30.1032C21.0496 30.0939 20.946 30.0748 20.8372 30.062C20.6736 30.0426 20.5064 30.0275 20.3495 30L20.0888 31.042C19.8555 31.9668 19.918 32.9415 20.2675 33.8289Z"/>
</mask>
<path d="M20.2675 33.8289C20.617 34.7163 21.236 35.4719 22.0372 35.9892C22.838 35.4711 23.4561 34.716 23.8061 33.8288C24.1562 32.9416 24.22 31.9672 23.9888 31.0419L23.7288 30.0053C23.6772 30.0136 23.6235 30.0214 23.5688 30.0292C23.0624 30.105 22.5509 30.1418 22.0388 30.1392C21.7388 30.1392 21.4457 30.1269 21.161 30.1032C21.0496 30.0939 20.946 30.0748 20.8372 30.062C20.6736 30.0426 20.5064 30.0275 20.3495 30L20.0888 31.042C19.8555 31.9668 19.918 32.9415 20.2675 33.8289Z" fill="#F3BE00"/>
<path d="M20.2675 33.8289C20.617 34.7163 21.236 35.4719 22.0372 35.9892C22.838 35.4711 23.4561 34.716 23.8061 33.8288C24.1562 32.9416 24.22 31.9672 23.9888 31.0419L23.7288 30.0053C23.6772 30.0136 23.6235 30.0214 23.5688 30.0292C23.0624 30.105 22.5509 30.1418 22.0388 30.1392C21.7388 30.1392 21.4457 30.1269 21.161 30.1032C21.0496 30.0939 20.946 30.0748 20.8372 30.062C20.6736 30.0426 20.5064 30.0275 20.3495 30L20.0888 31.042C19.8555 31.9668 19.918 32.9415 20.2675 33.8289Z" stroke="#302500" stroke-width="3" stroke-linejoin="round" mask="url(#path-13-outside-11)"/>
<mask id="path-14-outside-12" maskUnits="userSpaceOnUse" x="18.0391" y="-2.62268e-07" width="8" height="10" fill="black">
<rect fill="white" x="18.0391" y="-2.62268e-07" width="8" height="10"/>
<path d="M23.7218 4.16029C23.3723 3.27286 22.7534 2.51733 21.9521 2C21.1514 2.51814 20.5333 3.27317 20.1832 4.16037C19.8332 5.04756 19.7693 6.022 20.0005 6.9473L20.2605 7.9839C20.3121 7.9756 20.3658 7.9678 20.4205 7.96C20.9269 7.8842 21.4384 7.84743 21.9505 7.85C22.2505 7.85 22.5436 7.8623 22.8283 7.886C22.9397 7.8953 23.0433 7.9144 23.1521 7.9272C23.3157 7.9466 23.4829 7.9617 23.6398 7.9892L23.9005 6.9472C24.1338 6.0224 24.0713 5.04772 23.7218 4.16029Z"/>
</mask>
<path d="M23.7218 4.16029C23.3723 3.27286 22.7534 2.51733 21.9521 2C21.1514 2.51814 20.5333 3.27317 20.1832 4.16037C19.8332 5.04756 19.7693 6.022 20.0005 6.9473L20.2605 7.9839C20.3121 7.9756 20.3658 7.9678 20.4205 7.96C20.9269 7.8842 21.4384 7.84743 21.9505 7.85C22.2505 7.85 22.5436 7.8623 22.8283 7.886C22.9397 7.8953 23.0433 7.9144 23.1521 7.9272C23.3157 7.9466 23.4829 7.9617 23.6398 7.9892L23.9005 6.9472C24.1338 6.0224 24.0713 5.04772 23.7218 4.16029Z" fill="#F3BE00"/>
<path d="M23.7218 4.16029C23.3723 3.27286 22.7534 2.51733 21.9521 2C21.1514 2.51814 20.5333 3.27317 20.1832 4.16037C19.8332 5.04756 19.7693 6.022 20.0005 6.9473L20.2605 7.9839C20.3121 7.9756 20.3658 7.9678 20.4205 7.96C20.9269 7.8842 21.4384 7.84743 21.9505 7.85C22.2505 7.85 22.5436 7.8623 22.8283 7.886C22.9397 7.8953 23.0433 7.9144 23.1521 7.9272C23.3157 7.9466 23.4829 7.9617 23.6398 7.9892L23.9005 6.9472C24.1338 6.0224 24.0713 5.04772 23.7218 4.16029Z" stroke="#302500" stroke-width="3" stroke-linejoin="round" mask="url(#path-14-outside-12)"/>
<mask id="path-15-outside-13" maskUnits="userSpaceOnUse" x="5.81974" y="22.6263" width="12.7279" height="12.7279" fill="black">
<rect fill="white" x="5.81974" y="22.6263" width="12.7279" height="12.7279"/>
<path d="M10.284 28.2628C9.90359 29.1374 9.807 30.1093 10.0078 31.0417C10.9404 31.2416 11.9113 31.1447 12.7862 30.7649C13.661 30.3851 14.3953 29.7412 14.8861 28.9235L15.4352 28.0066C15.3928 27.976 15.3493 27.9435 15.3052 27.9104C14.8935 27.6059 14.5058 27.2702 14.1455 26.9063C13.9334 26.6942 13.7348 26.4782 13.5503 26.2601C13.4781 26.1748 13.4183 26.088 13.3504 26.002C13.2485 25.8726 13.1409 25.7437 13.0494 25.6133L12.1283 26.1658C11.3093 26.6548 10.6643 27.3881 10.284 28.2628Z"/>
</mask>
<path d="M10.284 28.2628C9.90359 29.1374 9.807 30.1093 10.0078 31.0417C10.9404 31.2416 11.9113 31.1447 12.7862 30.7649C13.661 30.3851 14.3953 29.7412 14.8861 28.9235L15.4352 28.0066C15.3928 27.976 15.3493 27.9435 15.3052 27.9104C14.8935 27.6059 14.5058 27.2702 14.1455 26.9063C13.9334 26.6942 13.7348 26.4782 13.5503 26.2601C13.4781 26.1748 13.4183 26.088 13.3504 26.002C13.2485 25.8726 13.1409 25.7437 13.0494 25.6133L12.1283 26.1658C11.3093 26.6548 10.6643 27.3881 10.284 28.2628Z" fill="#F3BE00"/>
<path d="M10.284 28.2628C9.90359 29.1374 9.807 30.1093 10.0078 31.0417C10.9404 31.2416 11.9113 31.1447 12.7862 30.7649C13.661 30.3851 14.3953 29.7412 14.8861 28.9235L15.4352 28.0066C15.3928 27.976 15.3493 27.9435 15.3052 27.9104C14.8935 27.6059 14.5058 27.2702 14.1455 26.9063C13.9334 26.6942 13.7348 26.4782 13.5503 26.2601C13.4781 26.1748 13.4183 26.088 13.3504 26.002C13.2485 25.8726 13.1409 25.7437 13.0494 25.6133L12.1283 26.1658C11.3093 26.6548 10.6643 27.3881 10.284 28.2628Z" stroke="#302500" stroke-width="3" stroke-linejoin="round" mask="url(#path-15-outside-13)"/>
<mask id="path-16-outside-14" maskUnits="userSpaceOnUse" x="25.5578" y="2.76633" width="12.7279" height="12.7279" fill="black">
<rect fill="white" x="25.5578" y="2.76633" width="12.7279" height="12.7279"/>
<path d="M33.7054 9.72642C34.0858 8.85177 34.1824 7.87988 33.9816 6.94748C33.049 6.74765 32.078 6.84449 31.2032 7.22431C30.3283 7.60412 29.5941 8.24798 29.1033 9.06576L28.5542 9.98259C28.5965 10.0132 28.64 10.0457 28.6842 10.0788C29.0959 10.3833 29.4836 10.719 29.8439 11.0829C30.056 11.2951 30.2545 11.511 30.4391 11.7291C30.5113 11.8144 30.571 11.9012 30.6389 11.9872C30.7409 12.1166 30.8484 12.2455 30.9399 12.3759L31.8611 11.8234C32.68 11.3345 33.325 10.6011 33.7054 9.72642Z"/>
</mask>
<path d="M33.7054 9.72642C34.0858 8.85177 34.1824 7.87988 33.9816 6.94748C33.049 6.74765 32.078 6.84449 31.2032 7.22431C30.3283 7.60412 29.5941 8.24798 29.1033 9.06576L28.5542 9.98259C28.5965 10.0132 28.64 10.0457 28.6842 10.0788C29.0959 10.3833 29.4836 10.719 29.8439 11.0829C30.056 11.2951 30.2545 11.511 30.4391 11.7291C30.5113 11.8144 30.571 11.9012 30.6389 11.9872C30.7409 12.1166 30.8484 12.2455 30.9399 12.3759L31.8611 11.8234C32.68 11.3345 33.325 10.6011 33.7054 9.72642Z" fill="#F3BE00"/>
<path d="M33.7054 9.72642C34.0858 8.85177 34.1824 7.87988 33.9816 6.94748C33.049 6.74765 32.078 6.84449 31.2032 7.22431C30.3283 7.60412 29.5941 8.24798 29.1033 9.06576L28.5542 9.98259C28.5965 10.0132 28.64 10.0457 28.6842 10.0788C29.0959 10.3833 29.4836 10.719 29.8439 11.0829C30.056 11.2951 30.2545 11.511 30.4391 11.7291C30.5113 11.8144 30.571 11.9012 30.6389 11.9872C30.7409 12.1166 30.8484 12.2455 30.9399 12.3759L31.8611 11.8234C32.68 11.3345 33.325 10.6011 33.7054 9.72642Z" stroke="#302500" stroke-width="3" stroke-linejoin="round" mask="url(#path-16-outside-14)"/>
<mask id="path-17-outside-15" maskUnits="userSpaceOnUse" x="5.63499" y="2.81968" width="12.7279" height="12.7279" fill="black">
<rect fill="white" x="5.63499" y="2.81968" width="12.7279" height="12.7279"/>
<path d="M12.7264 7.2839C11.8518 6.90353 10.8799 6.80694 9.9475 7.00773C9.74767 7.94031 9.84451 8.91126 10.2243 9.78612C10.6041 10.661 11.248 11.3952 12.0658 11.886L12.9826 12.4351C13.0132 12.3928 13.0457 12.3493 13.0788 12.3051C13.3833 11.8934 13.719 11.5057 14.0829 11.1454C14.2951 10.9333 14.511 10.7347 14.7291 10.5502C14.8144 10.478 14.9012 10.4183 14.9872 10.3504C15.1166 10.2484 15.2455 10.1408 15.3759 10.0493L14.8234 9.1282C14.3345 8.30929 13.6011 7.66427 12.7264 7.2839Z"/>
</mask>
<path d="M12.7264 7.2839C11.8518 6.90353 10.8799 6.80694 9.9475 7.00773C9.74767 7.94031 9.84451 8.91126 10.2243 9.78612C10.6041 10.661 11.248 11.3952 12.0658 11.886L12.9826 12.4351C13.0132 12.3928 13.0457 12.3493 13.0788 12.3051C13.3833 11.8934 13.719 11.5057 14.0829 11.1454C14.2951 10.9333 14.511 10.7347 14.7291 10.5502C14.8144 10.478 14.9012 10.4183 14.9872 10.3504C15.1166 10.2484 15.2455 10.1408 15.3759 10.0493L14.8234 9.1282C14.3345 8.30929 13.6011 7.66427 12.7264 7.2839Z" fill="#F3BE00"/>
<path d="M12.7264 7.2839C11.8518 6.90353 10.8799 6.80694 9.9475 7.00773C9.74767 7.94031 9.84451 8.91126 10.2243 9.78612C10.6041 10.661 11.248 11.3952 12.0658 11.886L12.9826 12.4351C13.0132 12.3928 13.0457 12.3493 13.0788 12.3051C13.3833 11.8934 13.719 11.5057 14.0829 11.1454C14.2951 10.9333 14.511 10.7347 14.7291 10.5502C14.8144 10.478 14.9012 10.4183 14.9872 10.3504C15.1166 10.2484 15.2455 10.1408 15.3759 10.0493L14.8234 9.1282C14.3345 8.30929 13.6011 7.66427 12.7264 7.2839Z" stroke="#302500" stroke-width="3" stroke-linejoin="round" mask="url(#path-17-outside-15)"/>
<mask id="path-18-outside-16" maskUnits="userSpaceOnUse" x="25.4949" y="22.5577" width="12.7279" height="12.7279" fill="black">
<rect fill="white" x="25.4949" y="22.5577" width="12.7279" height="12.7279"/>
<path d="M31.2627 30.7053C32.1373 31.0857 33.1092 31.1823 34.0416 30.9815C34.2415 30.0489 34.1446 29.0779 33.7648 28.2031C33.385 27.3282 32.7411 26.594 31.9233 26.1032L31.0065 25.5541C30.9759 25.5964 30.9434 25.6399 30.9103 25.6841C30.6058 26.0958 30.2701 26.4835 29.9062 26.8438C29.6941 27.0559 29.4781 27.2545 29.26 27.439C29.1747 27.5112 29.0879 27.571 29.0019 27.6388C28.8725 27.7408 28.7436 27.8484 28.6132 27.9399L29.1657 28.861C29.6547 29.6799 30.388 30.3249 31.2627 30.7053Z"/>
</mask>
<path d="M31.2627 30.7053C32.1373 31.0857 33.1092 31.1823 34.0416 30.9815C34.2415 30.0489 34.1446 29.0779 33.7648 28.2031C33.385 27.3282 32.7411 26.594 31.9233 26.1032L31.0065 25.5541C30.9759 25.5964 30.9434 25.6399 30.9103 25.6841C30.6058 26.0958 30.2701 26.4835 29.9062 26.8438C29.6941 27.0559 29.4781 27.2545 29.26 27.439C29.1747 27.5112 29.0879 27.571 29.0019 27.6388C28.8725 27.7408 28.7436 27.8484 28.6132 27.9399L29.1657 28.861C29.6547 29.6799 30.388 30.3249 31.2627 30.7053Z" fill="#F3BE00"/>
<path d="M31.2627 30.7053C32.1373 31.0857 33.1092 31.1823 34.0416 30.9815C34.2415 30.0489 34.1446 29.0779 33.7648 28.2031C33.385 27.3282 32.7411 26.594 31.9233 26.1032L31.0065 25.5541C30.9759 25.5964 30.9434 25.6399 30.9103 25.6841C30.6058 26.0958 30.2701 26.4835 29.9062 26.8438C29.6941 27.0559 29.4781 27.2545 29.26 27.439C29.1747 27.5112 29.0879 27.571 29.0019 27.6388C28.8725 27.7408 28.7436 27.8484 28.6132 27.9399L29.1657 28.861C29.6547 29.6799 30.388 30.3249 31.2627 30.7053Z" stroke="#302500" stroke-width="3" stroke-linejoin="round" mask="url(#path-18-outside-16)"/>
<path fill-rule="evenodd" clip-rule="evenodd" d="M20 38.227C20.1301 38.3253 20.2635 38.4195 20.4003 38.5093C20.4003 38.5093 21.4715 39 21.9629 39C22.4543 39 23.5048 38.5093 23.5048 38.5093C23.6685 38.45 23.8345 38.3559 24 38.236V41.5C24 42.5 23.1046 43 22 43C20.8954 43 20 42.5 20 41.5V38.227Z" fill="#302500"/>
<path fill-rule="evenodd" clip-rule="evenodd" d="M22 29C27.5228 29 32 24.5228 32 19C32 13.4772 27.5228 9 22 9C16.4772 9 12 13.4772 12 19C12 24.5228 16.4772 29 22 29ZM20 13C20 13.5523 19.5523 14 19 14C18.4477 14 18 13.5523 18 13C18 12.4477 18.4477 12 19 12C19.5523 12 20 12.4477 20 13ZM16 16C16.5523 16 17 15.5523 17 15C17 14.4477 16.5523 14 16 14C15.4477 14 15 14.4477 15 15C15 15.5523 15.4477 16 16 16ZM16 20C16.5523 20 17 19.5523 17 19C17 18.4477 16.5523 18 16 18C15.4477 18 15 18.4477 15 19C15 19.5523 15.4477 20 16 20ZM20 17C20 17.5523 19.5523 18 19 18C18.4477 18 18 17.5523 18 17C18 16.4477 18.4477 16 19 16C19.5523 16 20 16.4477 20 17ZM22 20C22.5523 20 23 19.5523 23 19C23 18.4477 22.5523 18 22 18C21.4477 18 21 18.4477 21 19C21 19.5523 21.4477 20 22 20ZM26 21C26 21.5523 25.5523 22 25 22C24.4477 22 24 21.5523 24 21C24 20.4477 24.4477 20 25 20C25.5523 20 26 20.4477 26 21ZM22 24C22.5523 24 23 23.5523 23 23C23 22.4477 22.5523 22 22 22C21.4477 22 21 22.4477 21 23C21 23.5523 21.4477 24 22 24ZM25 14C25.5523 14 26 13.5523 26 13C26 12.4477 25.5523 12 25 12C24.4477 12 24 12.4477 24 13C24 13.5523 24.4477 14 25 14ZM26 25C26 25.5523 25.5523 26 25 26C24.4477 26 24 25.5523 24 25C24 24.4477 24.4477 24 25 24C25.5523 24 26 24.4477 26 25ZM19 26C19.5523 26 20 25.5523 20 25C20 24.4477 19.5523 24 19 24C18.4477 24 18 24.4477 18 25C18 25.5523 18.4477 26 19 26ZM20 21C20 21.5523 19.5523 22 19 22C18.4477 22 18 21.5523 18 21C18 20.4477 18.4477 20 19 20C19.5523 20 20 20.4477 20 21ZM16 24C16.5523 24 17 23.5523 17 23C17 22.4477 16.5523 22 16 22C15.4477 22 15 22.4477 15 23C15 23.5523 15.4477 24 16 24ZM23 15C23 15.5523 22.5523 16 22 16C21.4477 16 21 15.5523 21 15C21 14.4477 21.4477 14 22 14C22.5523 14 23 14.4477 23 15ZM28 16C28.5523 16 29 15.5523 29 15C29 14.4477 28.5523 14 28 14C27.4477 14 27 14.4477 27 15C27 15.5523 27.4477 16 28 16ZM29 23C29 23.5523 28.5523 24 28 24C27.4477 24 27 23.5523 27 23C27 22.4477 27.4477 22 28 22C28.5523 22 29 22.4477 29 23ZM25 18C25.5523 18 26 17.5523 26 17C26 16.4477 25.5523 16 25 16C24.4477 16 24 16.4477 24 17C24 17.5523 24.4477 18 25 18ZM29 19C29 19.5523 28.5523 20 28 20C27.4477 20 27 19.5523 27 19C27 18.4477 27.4477 18 28 18C28.5523 18 29 18.4477 29 19Z" fill="#302500"/>
</svg>
