<svg width="32" height="26" viewBox="0 0 32 26" fill="none" xmlns="http://www.w3.org/2000/svg">
<path fill-rule="evenodd" clip-rule="evenodd" d="M30.9461 9.27871L18.5545 15.4729C17.1493 16.1766 14.8483 16.1766 13.4442 15.4729L1.05469 9.27871C-0.351562 8.57506 -0.351562 7.42402 1.05469 6.72247L13.4442 0.526161C14.8494 -0.175387 17.1493 -0.175387 18.5545 0.526161L30.9461 6.72247C32.3513 7.42402 32.3513 8.57506 30.9461 9.27871ZM18.5787 8.00059C18.5787 7.15726 17.4234 6.47252 15.9993 6.47252C14.5752 6.47252 13.42 7.15726 13.42 8.00059C13.42 8.84392 14.5752 9.52866 15.9993 9.52866C17.4234 9.52866 18.5787 8.84392 18.5787 8.00059ZM30.9606 19.5205C30.9606 18.862 30.5668 18.298 30.0028 18.0418V11.2479L28.6648 11.9169V18.0418C28.1009 18.298 27.707 18.862 27.707 19.5205C27.707 19.9353 27.8667 20.3081 28.1208 20.5949L26.9204 24.4817C26.9204 24.4817 27.6272 25.2757 29.3349 25.2757C31.0415 25.2757 31.7493 24.4817 31.7493 24.4817L30.5479 20.5949C30.802 20.3081 30.9606 19.9343 30.9606 19.5205ZM26.9195 12.7886L19.1521 16.6712C18.2909 17.1018 17.1692 17.3402 15.9982 17.3402C14.8262 17.3402 13.7046 17.1018 12.8423 16.6712L5.07699 12.7886V18.8274C5.07699 20.8742 10.367 23.5187 15.9972 23.5187C21.6274 23.5187 26.9174 20.8742 26.9174 18.8274C26.9195 17.648 26.9195 14.9069 26.9195 12.7886Z" fill="#C28BED"/>
</svg>
