<svg width="22" height="24" viewBox="0 0 22 24" fill="none" xmlns="http://www.w3.org/2000/svg">
<path fill-rule="evenodd" clip-rule="evenodd" d="M9.24263 10.891C9.03133 10.9871 8.86198 11.1564 8.76593 11.3677L5.84457 17.7947C5.66104 18.1985 6.07641 18.6139 6.48017 18.4303L12.9072 15.509C13.1185 15.4129 13.2878 15.2436 13.3839 15.0323L16.3052 8.60527C16.4888 8.2015 16.0734 7.78614 15.6696 7.96967L9.24263 10.891ZM8.79744 15.7953C8.59556 15.887 8.38788 15.6793 8.47964 15.4775L9.85903 12.4427C9.92837 12.2902 10.1287 12.2538 10.2472 12.3723L11.9026 14.0277C12.0211 14.1462 11.9847 14.3465 11.8322 14.4159L8.79744 15.7953Z" fill="#4F77DD"/>
<path d="M11.0749 7.2C11.6051 7.2 12.0349 6.77019 12.0349 6.24C12.0349 5.70981 11.6051 5.28 11.0749 5.28C10.5447 5.28 10.1149 5.70981 10.1149 6.24C10.1149 6.77019 10.5447 7.2 11.0749 7.2Z" fill="#4F77DD"/>
<path d="M18.0349 14.16C18.5651 14.16 18.9949 13.7302 18.9949 13.2C18.9949 12.6698 18.5651 12.24 18.0349 12.24C17.5047 12.24 17.0749 12.6698 17.0749 13.2C17.0749 13.7302 17.5047 14.16 18.0349 14.16Z" fill="#4F77DD"/>
<path d="M12.0349 20.16C12.0349 20.6902 11.6051 21.12 11.0749 21.12C10.5447 21.12 10.1149 20.6902 10.1149 20.16C10.1149 19.6298 10.5447 19.2 11.0749 19.2C11.6051 19.2 12.0349 19.6298 12.0349 20.16Z" fill="#4F77DD"/>
<path d="M4.1149 14.16C4.6451 14.16 5.0749 13.7302 5.0749 13.2C5.0749 12.6698 4.6451 12.24 4.1149 12.24C3.58471 12.24 3.1549 12.6698 3.1549 13.2C3.1549 13.7302 3.58471 14.16 4.1149 14.16Z" fill="#4F77DD"/>
<path fill-rule="evenodd" clip-rule="evenodd" d="M12.5149 1.44C12.5149 1.83261 12.3578 2.18853 12.103 2.44829C17.5855 2.966 21.8749 7.58203 21.8749 13.2C21.8749 19.1647 17.0396 24 11.0749 24C5.11018 24 0.274902 19.1647 0.274902 13.2C0.274902 7.58203 4.56434 2.966 10.0468 2.44829C9.79203 2.18853 9.6349 1.83261 9.6349 1.44C9.6349 0.64471 10.2796 0 11.0749 0C11.8702 0 12.5149 0.64471 12.5149 1.44ZM11.0749 1.92C11.34 1.92 11.5549 1.7051 11.5549 1.44C11.5549 1.1749 11.34 0.96 11.0749 0.96C10.8098 0.96 10.5949 1.1749 10.5949 1.44C10.5949 1.7051 10.8098 1.92 11.0749 1.92ZM11.0749 4.8C15.7141 4.8 19.4749 8.56077 19.4749 13.2C19.4749 17.8392 15.7141 21.6 11.0749 21.6C6.43568 21.6 2.6749 17.8392 2.6749 13.2C2.6749 8.56077 6.43568 4.8 11.0749 4.8Z" fill="#4F77DD"/>
</svg>
