<svg width="32" height="32" viewBox="0 0 32 32" fill="none" xmlns="http://www.w3.org/2000/svg">
<path fill-rule="evenodd" clip-rule="evenodd" d="M25.28 14.0655L27.6006 18.4956C28.1721 19.5871 27.632 20.48 26.4 20.48H25.28V24.4C25.28 25.632 24.272 26.64 23.04 26.64H19.96V30H7.36V20.3957C5.29304 18.4548 4 15.699 4 12.6397C4 6.76364 8.76364 2 14.64 2C20.5164 2 25.28 6.76392 25.28 12.64V14.0655ZM15.846 15.3613L16.255 14.6515L15.4458 13.7113L15.5744 12.9822L16.6571 12.3746L16.5143 11.5682L15.2899 11.3677L14.9197 10.7262L15.3582 9.56532L14.7307 9.03892L13.6639 9.67284L12.9681 9.41972L12.5582 8.2482H11.7389L11.329 9.41972L10.6332 9.67284L9.56612 9.03892L8.93864 9.5656L9.3774 10.7265L9.00724 11.3674L7.78224 11.5679L7.64 12.3748L8.72276 12.9819L8.85128 13.711L8.0418 14.6521L8.45144 15.3613L9.67112 15.1306L10.2381 15.6063L10.2224 16.8478L10.9924 17.1278L11.7784 16.1669H12.519L13.305 17.1278L14.0744 16.8473L14.059 15.6063L14.6266 15.1306L15.846 15.3613ZM20.6888 11.0602L21.0985 10.3507L20.3402 9.49588V8.91152L21.0988 8.0564L20.6891 7.34688L19.5697 7.57592L19.0632 7.28388L18.7022 6.2H17.883L17.5212 7.28416L17.0152 7.5762L15.8952 7.34716L15.4856 8.05668L16.2441 8.91152V9.49588L15.4856 10.3507L15.8952 11.0602L17.0147 10.8312L17.5212 11.1235L17.8827 12.2074H18.702L19.0629 11.1235L19.5688 10.8312L20.6888 11.0602ZM18.2926 9.95763C18.7091 9.95763 19.0467 9.62003 19.0467 9.20359C19.0467 8.78714 18.7091 8.44955 18.2926 8.44955C17.8762 8.44955 17.5386 8.78714 17.5386 9.20359C17.5386 9.62003 17.8762 9.95763 18.2926 9.95763ZM12.1486 13.8252C12.7404 13.8252 13.2201 13.3455 13.2201 12.7537C13.2201 12.1618 12.7404 11.6821 12.1486 11.6821C11.5568 11.6821 11.077 12.1618 11.077 12.7537C11.077 13.3455 11.5568 13.8252 12.1486 13.8252Z" fill="#DFC642"/>
</svg>
