<svg width="28" height="32" viewBox="0 0 28 32" fill="none" xmlns="http://www.w3.org/2000/svg">
<path fill-rule="evenodd" clip-rule="evenodd" d="M23.1323 14.5542C23.6379 13.7961 24.4603 13.2911 25.4098 13.2921C26.8656 13.2936 28.0695 14.496 27.9443 15.8868L27.9518 23.2208C27.9542 25.5601 27.0069 27.772 25.3629 29.4141C23.7189 31.1195 21.5043 32.0024 19.1623 32L14.9846 31.9957C12.0096 31.9927 9.22311 30.6622 7.32184 28.3842L0.603997 20.2847C0.160331 19.7152 -0.0936377 18.9563 0.0321866 18.1977C0.0947127 17.4391 0.537157 16.8073 1.16969 16.3654C2.24505 15.671 3.70104 15.799 4.58811 16.685L7.31264 19.3432C7.376 19.4065 7.56596 19.4699 7.6925 19.4068C7.88233 19.3438 7.94549 19.2174 7.94537 19.0909L7.92864 2.6527C7.92716 1.19855 9.1286 -0.00147836 10.5845 1.367e-06C11.344 0.00077377 11.9773 0.254311 12.4842 0.760617C12.9911 1.26692 13.245 1.96264 13.2457 2.65811L13.2548 11.6359C13.7604 10.8777 14.5828 10.3728 15.5323 10.3737C16.9881 10.3752 18.192 11.5777 18.1935 13.0318L18.1936 13.0951C18.6992 12.3369 19.5215 11.8319 20.471 11.8329C21.9269 11.8344 23.1308 13.0369 23.1322 14.491L23.1323 14.5542ZM17.4184 17.5028C17.2367 17.1345 16.7114 17.1345 16.5296 17.5028L15.3051 19.9839C15.2329 20.1302 15.0934 20.2316 14.932 20.255L12.1939 20.6529C11.7874 20.712 11.6251 21.2115 11.9192 21.4982L13.9005 23.4295C14.0173 23.5434 14.0706 23.7074 14.0431 23.8682L13.5753 26.5952C13.5059 27 13.9308 27.3087 14.2944 27.1176L16.7434 25.8301C16.8878 25.7542 17.0603 25.7542 17.2046 25.8301L19.6536 27.1176C20.0172 27.3087 20.4422 27 20.3727 26.5952L19.905 23.8682C19.8774 23.7074 19.9307 23.5434 20.0475 23.4295L22.0288 21.4982C22.323 21.2115 22.1606 20.712 21.7542 20.6529L19.0161 20.255C18.8547 20.2316 18.7151 20.1302 18.6429 19.9839L17.4184 17.5028Z" fill="#DC8A5D"/>
</svg>
