<svg width="26" height="28" viewBox="0 0 26 28" fill="none" xmlns="http://www.w3.org/2000/svg">
<path fill-rule="evenodd" clip-rule="evenodd" d="M19.4253 2.0229C21.3288 2.87466 23.1112 3.67225 24.5309 3.67225C24.8138 3.67225 25.0851 3.78462 25.2851 3.98463C25.4851 4.18465 25.5975 4.45594 25.5975 4.73881V11.0529C25.5975 19.1907 20.5313 23.169 16.8197 26.07C16.6813 26.1693 16.5415 26.2722 16.3999 26.3763C15.3464 27.1515 14.1931 28 12.7881 28C11.3895 28 10.2414 27.1619 9.18881 26.3936C9.043 26.2871 8.89902 26.1821 8.75647 26.0807L8.73072 26.0604C5.04265 23.1505 0 19.1718 0 11.0529V4.73881C0 4.45594 0.11237 4.18465 0.312389 3.98463C0.512408 3.78462 0.783692 3.67225 1.06656 3.67225C2.64444 3.67225 4.48223 2.83479 6.40254 1.95972C8.50343 1.00237 10.7031 0 12.7693 0C14.9045 0 17.2444 1.047 19.4253 2.0229ZM9.53305 9.92678C9.85435 9.92678 10.165 10.0331 10.4089 10.2265L11.8989 11.4874L15.0864 8.80705C15.3277 8.60868 15.6394 8.4991 15.9623 8.4991C16.2852 8.4991 16.5968 8.60868 16.8382 8.80705L19.0415 10.6273C19.1662 10.7337 19.2658 10.8628 19.3339 11.0065C19.402 11.1502 19.4372 11.3054 19.4372 11.4623C19.4372 11.6192 19.402 11.7744 19.3339 11.9181C19.2658 12.0619 19.1662 12.191 19.0415 12.2973L12.8289 17.5243C12.5813 17.7296 12.2585 17.8401 11.926 17.8333C11.5928 17.8436 11.2686 17.7326 11.023 17.5243L6.50806 13.7251C6.38048 13.6203 6.27832 13.4917 6.20829 13.3478C6.13826 13.2039 6.10194 13.048 6.10172 12.8901C6.10352 12.7334 6.13965 12.5786 6.20794 12.435C6.27622 12.2915 6.37524 12.1623 6.49903 12.0552L8.65716 10.2265C8.90105 10.0331 9.21174 9.92678 9.53305 9.92678Z" fill="#D37A80"/>
</svg>
