<svg width="6" height="24" viewBox="0 0 6 24" fill="none" xmlns="http://www.w3.org/2000/svg">
<path d="M5.625 3.5625C5.625 5.1158 4.3658 6.375 2.8125 6.375C1.2592 6.375 0 5.1158 0 3.5625C0 2.0092 1.2592 0.75 2.8125 0.75C4.3658 0.75 5.625 2.0092 5.625 3.5625Z" fill="#CDCABC"/>
<path d="M5.625 12C5.625 13.5533 4.3658 14.8125 2.8125 14.8125C1.2592 14.8125 0 13.5533 0 12C0 10.4467 1.2592 9.1875 2.8125 9.1875C4.3658 9.1875 5.625 10.4467 5.625 12Z" fill="#CDCABC"/>
<path d="M2.8125 23.25C4.3658 23.25 5.625 21.9908 5.625 20.4375C5.625 18.8842 4.3658 17.625 2.8125 17.625C1.2592 17.625 0 18.8842 0 20.4375C0 21.9908 1.2592 23.25 2.8125 23.25Z" fill="#CDCABC"/>
</svg>
