<svg width="43" height="40" viewBox="0 0 43 40" fill="none" xmlns="http://www.w3.org/2000/svg">
<path d="M32.2592 25.1259C36.3157 24.4993 40.6944 26.8526 40.8789 26.9533C41.0325 27.037 41.1611 27.1614 41.2509 27.3133C41.3408 27.4652 41.3884 27.6389 41.3888 27.8158C41.3892 27.9926 41.3423 28.166 41.2532 28.3173C41.164 28.4687 41.0359 28.5923 40.8827 28.6749C38.7867 29.8408 36.7577 31.1265 34.8054 32.5259C33.8779 33.1956 32.8072 33.6331 31.6801 33.8031C29.9979 34.0219 28.2864 33.7944 26.7114 33.1428C26.7114 33.1428 25.237 32.7095 25.2344 31.7343C25.233 31.2467 26.195 29.8004 26.195 29.8004C26.195 29.8004 27.6002 27.5135 28.6565 26.6993C29.7129 25.885 30.9492 25.3451 32.2592 25.1259Z" fill="#9DC209"/>
<path d="M12.2185 28.3071C13.5571 28.4999 15.9244 29.8081 15.9244 29.8081L17.0932 32.9816C16.0064 34.3241 14.5912 35.363 12.9848 35.9976C11.897 36.4026 10.7292 36.546 9.57577 36.4162C7.15316 36.1514 4.71746 36.0242 2.28043 36.0354C2.10359 36.0384 1.92926 35.9933 1.77609 35.9049C1.62292 35.8164 1.49667 35.688 1.41084 35.5334C1.32501 35.3787 1.28284 35.2037 1.28883 35.0269C1.29483 34.8501 1.34876 34.6783 1.44486 34.5298C1.56029 34.3515 4.31738 30.1453 8.23967 28.7012C9.51447 28.2495 10.8799 28.1143 12.2185 28.3071Z" fill="#9DC209"/>
<path d="M34.1842 23.6753C35.1146 23.6916 36.0267 23.4158 36.7921 22.8867C36.6241 21.9715 36.1743 21.1325 35.5053 20.4858C34.8363 19.839 33.9819 19.4176 33.0615 19.2806L32.0301 19.1279C32.0183 19.1775 32.0053 19.2288 31.9919 19.281C31.8712 19.7658 31.7133 20.2406 31.5198 20.7012C31.4078 20.9716 31.2873 21.2312 31.1597 21.4789C31.1097 21.5759 31.0538 21.6621 31.0016 21.7554C30.9231 21.8956 30.847 22.0407 30.7637 22.1718L31.6055 22.7958C32.352 23.3514 33.2538 23.659 34.1842 23.6753Z" fill="#F3BE00"/>
<path d="M8.73217 9.48509C7.80179 9.46879 6.88972 9.74459 6.12427 10.2737C6.29234 11.1889 6.74212 12.0279 7.4111 12.6746C8.08007 13.3214 8.93453 13.7428 9.85487 13.8798L10.8863 14.0325C10.8981 13.9829 10.9111 13.9316 10.9245 13.8794C11.0452 13.3946 11.203 12.9198 11.3965 12.4592C11.5086 12.1888 11.6291 11.9292 11.7567 11.6815C11.8067 11.5845 11.8626 11.4983 11.9148 11.405C11.9933 11.2648 12.0694 11.1197 12.1527 10.9885L11.3108 10.3645C10.5644 9.80896 9.66254 9.50139 8.73217 9.48509Z" fill="#F3BE00"/>
<path d="M14.3632 29.3062C14.3469 30.2366 14.6227 31.1486 15.1518 31.9141C16.067 31.746 16.906 31.2962 17.5528 30.6272C18.1995 29.9583 18.6209 29.1038 18.758 28.1835L18.9106 27.1521C18.861 27.1403 18.8097 27.1273 18.7575 27.1139C18.2727 26.9931 17.798 26.8353 17.3374 26.6418C17.067 26.5298 16.8074 26.4093 16.5596 26.2816C16.4627 26.2316 16.3764 26.1757 16.2831 26.1236C16.1429 26.045 15.9978 25.969 15.8667 25.8856L15.2427 26.7275C14.6871 27.474 14.3795 28.3758 14.3632 29.3062Z" fill="#F3BE00"/>
<path d="M28.5535 3.8541C28.5698 2.92373 28.294 2.01166 27.7649 1.2462C26.8497 1.41427 26.0107 1.86406 25.364 2.53303C24.7172 3.20201 24.2958 4.05646 24.1588 4.9768L24.0061 6.00821C24.0557 6.01999 24.107 6.03301 24.1592 6.04641C24.644 6.16716 25.1188 6.32498 25.5794 6.51848C25.8498 6.63049 26.1094 6.751 26.3571 6.87866C26.4541 6.92863 26.5403 6.98453 26.6336 7.03669C26.7738 7.11525 26.9189 7.19128 27.05 7.27465L27.6741 6.43278C28.2296 5.68632 28.5372 4.78447 28.5535 3.8541Z" fill="#F3BE00"/>
<path d="M7.44269 20.5619C6.7733 21.2082 6.32338 22.0481 6.15625 22.9635C6.92223 23.4918 7.83354 23.767 8.7639 23.7513C9.69425 23.7356 10.5964 23.4294 11.3441 22.8755L12.1814 22.2542C12.1546 22.2108 12.1276 22.1653 12.1001 22.1189C11.8427 21.6907 11.6186 21.2434 11.4297 20.7809C11.3177 20.5105 11.2194 20.2417 11.1344 19.9762C11.1012 19.8724 11.0798 19.7718 11.0507 19.669C11.0071 19.5143 10.9583 19.3579 10.9245 19.2063L9.88796 19.3603C8.96728 19.4953 8.11209 19.9155 7.44269 20.5619Z" fill="#F3BE00"/>
<path d="M35.474 12.5984C36.1434 11.9521 36.5933 11.1121 36.7605 10.1967C35.9945 9.66846 35.0832 9.39324 34.1528 9.40896C33.2225 9.42467 32.3203 9.73089 31.5726 10.2848L30.7354 10.9061C30.7621 10.9495 30.7892 10.995 30.8166 11.0414C31.074 11.4696 31.2981 11.9169 31.487 12.3794C31.599 12.6498 31.6974 12.9186 31.7823 13.184C31.8155 13.2879 31.837 13.3884 31.866 13.4913C31.9096 13.646 31.9584 13.8023 31.9922 13.954L33.0288 13.8C33.9494 13.665 34.8046 13.2448 35.474 12.5984Z" fill="#F3BE00"/>
<path d="M17.4767 2.56447C16.8304 1.89507 15.9904 1.44516 15.0751 1.27802C14.5468 2.044 14.2715 2.95531 14.2873 3.88567C14.303 4.81603 14.6092 5.71819 15.1631 6.46589L15.7844 7.30315C15.8278 7.27641 15.8733 7.24933 15.9197 7.22187C16.3479 6.96448 16.7952 6.74036 17.2577 6.5515C17.5281 6.4395 17.7969 6.34115 18.0623 6.25622C18.1662 6.22301 18.2667 6.20155 18.3696 6.17247C18.5243 6.12887 18.6806 6.08006 18.8323 6.04627L18.6783 5.00973C18.5433 4.08906 18.1231 3.23386 17.4767 2.56447Z" fill="#F3BE00"/>
<path d="M25.4401 30.5958C26.0864 31.2652 26.9264 31.7151 27.8417 31.8823C28.37 31.1163 28.6453 30.205 28.6295 29.2746C28.6138 28.3443 28.3076 27.4421 27.7537 26.6944L27.1324 25.8571C27.089 25.8839 27.0435 25.911 26.9971 25.9384C26.5689 26.1958 26.1216 26.4199 25.6591 26.6088C25.3887 26.7208 25.1199 26.8191 24.8544 26.9041C24.7506 26.9373 24.6501 26.9587 24.5472 26.9878C24.3925 27.0314 24.2362 27.0802 24.0845 27.114L24.2385 28.1506C24.3735 29.0712 24.7937 29.9264 25.4401 30.5958Z" fill="#F3BE00"/>
<path d="M35.9308 18.2651C36.7966 17.9241 37.5337 17.3203 38.0384 16.5386C37.5329 15.7574 36.7963 15.1543 35.9308 14.8128C35.0652 14.4713 34.1145 14.409 33.2118 14.6346L32.2005 14.8882C32.2086 14.9386 32.2162 14.9909 32.2238 15.0443C32.2977 15.5384 32.3336 16.0374 32.3311 16.537C32.3311 16.8297 32.3191 17.1156 32.296 17.3934C32.2869 17.5021 32.2683 17.6031 32.2558 17.7093C32.2369 17.8689 32.2221 18.032 32.1953 18.1851L33.2119 18.4394C34.1141 18.6671 35.065 18.6061 35.9308 18.2651Z" fill="#F3BE00"/>
<path d="M6.98578 14.8951C6.11999 15.236 5.38289 15.8399 4.87817 16.6216C5.38368 17.4028 6.1203 18.0058 6.98585 18.3473C7.8514 18.6889 8.80208 18.7512 9.70482 18.5256L10.7161 18.272C10.708 18.2216 10.7004 18.1692 10.6928 18.1159C10.6189 17.6218 10.583 17.1228 10.5855 16.6232C10.5855 16.3305 10.5975 16.0445 10.6206 15.7668C10.6297 15.6581 10.6483 15.557 10.6608 15.4509C10.6797 15.2913 10.6945 15.1282 10.7213 14.9751L9.70472 14.7207C8.80247 14.4931 7.85157 14.5541 6.98578 14.8951Z" fill="#F3BE00"/>
<path d="M19.7735 31.0526C20.1144 31.9184 20.7183 32.6555 21.5 33.1602C22.2812 32.6547 22.8842 31.9181 23.2258 31.0525C23.5673 30.187 23.6296 29.2363 23.404 28.3336L23.1504 27.3223C23.1 27.3304 23.0476 27.338 22.9943 27.3456C22.5002 27.4195 22.0012 27.4554 21.5016 27.4529C21.2089 27.4529 20.923 27.4409 20.6452 27.4178C20.5365 27.4087 20.4354 27.3901 20.3293 27.3776C20.1697 27.3586 20.0066 27.3439 19.8535 27.3171L19.5991 28.3337C19.3715 29.2359 19.4325 30.1868 19.7735 31.0526Z" fill="#F3BE00"/>
<path d="M23.1434 2.1076C22.8024 1.24181 22.1986 0.504714 21.4168 -8.89994e-08C20.6356 0.505502 20.0326 1.24212 19.6911 2.10768C19.3496 2.97323 19.2872 3.92391 19.5128 4.82664L19.7665 5.83796C19.8168 5.82986 19.8692 5.82225 19.9226 5.81464C20.4166 5.74069 20.9157 5.70481 21.4153 5.70732C21.7079 5.70732 21.9939 5.71932 22.2716 5.74245C22.3803 5.75152 22.4814 5.77016 22.5875 5.78264C22.7472 5.80157 22.9103 5.8163 23.0634 5.84313L23.3177 4.82654C23.5453 3.9243 23.4844 2.97339 23.1434 2.1076Z" fill="#F3BE00"/>
<path d="M10.0335 25.6223C9.66237 26.4756 9.56814 27.4238 9.76403 28.3335C10.6739 28.5284 11.6211 28.434 12.4747 28.0634C13.3282 27.6928 14.0445 27.0647 14.5233 26.2669L15.0591 25.3724C15.0177 25.3425 14.9753 25.3109 14.9322 25.2785C14.5305 24.9814 14.1523 24.6539 13.8008 24.2989C13.5939 24.0919 13.4002 23.8813 13.2201 23.6685C13.1497 23.5852 13.0914 23.5006 13.0251 23.4167C12.9257 23.2905 12.8207 23.1647 12.7315 23.0375L11.8328 23.5765C11.0338 24.0535 10.4046 24.769 10.0335 25.6223Z" fill="#F3BE00"/>
<path d="M32.8834 7.53806C33.2545 6.68474 33.3487 5.73655 33.1528 4.82689C32.243 4.63194 31.2957 4.72642 30.4422 5.09697C29.5887 5.46752 28.8724 6.09568 28.3935 6.89351L27.8578 7.78798C27.8991 7.81785 27.9415 7.84952 27.9846 7.88187C28.3863 8.17895 28.7645 8.50644 29.116 8.86147C29.323 9.06843 29.5167 9.27912 29.6967 9.49187C29.7672 9.57513 29.8255 9.65978 29.8917 9.74367C29.9912 9.86991 30.0961 9.99567 30.1854 10.1229L31.0841 9.5839C31.883 9.10687 32.5123 8.39137 32.8834 7.53806Z" fill="#F3BE00"/>
<path d="M12.4161 5.15506C11.5628 4.78397 10.6146 4.68974 9.70496 4.88563C9.51001 5.79547 9.60449 6.74273 9.97504 7.59626C10.3456 8.44978 10.9737 9.16609 11.7716 9.64491L12.6661 10.1807C12.6959 10.1393 12.7276 10.0969 12.7599 10.0538C13.057 9.65214 13.3845 9.2739 13.7395 8.92242C13.9465 8.71546 14.1572 8.52175 14.3699 8.3417C14.4532 8.27126 14.5379 8.21297 14.6217 8.14674C14.748 8.04727 14.8737 7.94233 15.001 7.85307L14.462 6.95438C13.9849 6.15544 13.2694 5.52616 12.4161 5.15506Z" fill="#F3BE00"/>
<path d="M30.5005 28.0052C31.3538 28.3763 32.302 28.4705 33.2117 28.2746C33.4066 27.3648 33.3122 26.4175 32.9416 25.564C32.5711 24.7104 31.9429 23.9941 31.1451 23.5153L30.2506 22.9796C30.2207 23.0209 30.1891 23.0633 30.1567 23.1064C29.8596 23.5081 29.5321 23.8863 29.1771 24.2378C28.9702 24.4448 28.7595 24.6385 28.5467 24.8185C28.4634 24.889 28.3788 24.9473 28.2949 25.0135C28.1687 25.113 28.0429 25.2179 27.9157 25.3072L28.4547 26.2058C28.9317 27.0048 29.6472 27.6341 30.5005 28.0052Z" fill="#F3BE00"/>
<path fill-rule="evenodd" clip-rule="evenodd" d="M19.5122 35.3434C19.6391 35.4393 19.7693 35.5312 19.9026 35.6188C19.9026 35.6188 20.9477 36.0975 21.4272 36.0975C21.9066 36.0975 22.9314 35.6188 22.9314 35.6188C23.0912 35.5609 23.2532 35.4691 23.4147 35.352V38.5366C23.4147 39.5122 22.5411 40 21.4634 40C20.3858 40 19.5122 39.5122 19.5122 38.5366V35.3434Z" fill="#9DC209"/>
<path fill-rule="evenodd" clip-rule="evenodd" d="M21.4634 26.3415C26.8515 26.3415 31.2195 21.9735 31.2195 16.5854C31.2195 11.1972 26.8515 6.82927 21.4634 6.82927C16.0752 6.82927 11.7073 11.1972 11.7073 16.5854C11.7073 21.9735 16.0752 26.3415 21.4634 26.3415ZM19.5124 10.7317C19.5124 11.2705 19.0756 11.7073 18.5368 11.7073C17.998 11.7073 17.5612 11.2705 17.5612 10.7317C17.5612 10.1929 17.998 9.7561 18.5368 9.7561C19.0756 9.7561 19.5124 10.1929 19.5124 10.7317ZM15.6099 13.6586C16.1487 13.6586 16.5855 13.2218 16.5855 12.683C16.5855 12.1441 16.1487 11.7074 15.6099 11.7074C15.071 11.7074 14.6343 12.1441 14.6343 12.683C14.6343 13.2218 15.071 13.6586 15.6099 13.6586ZM15.6099 17.561C16.1487 17.561 16.5855 17.1242 16.5855 16.5854C16.5855 16.0466 16.1487 15.6098 15.6099 15.6098C15.071 15.6098 14.6343 16.0466 14.6343 16.5854C14.6343 17.1242 15.071 17.561 15.6099 17.561ZM19.5124 14.6341C19.5124 15.173 19.0756 15.6097 18.5368 15.6097C17.998 15.6097 17.5612 15.173 17.5612 14.6341C17.5612 14.0953 17.998 13.6585 18.5368 13.6585C19.0756 13.6585 19.5124 14.0953 19.5124 14.6341ZM21.4635 17.561C22.0024 17.561 22.4392 17.1242 22.4392 16.5854C22.4392 16.0466 22.0024 15.6098 21.4635 15.6098C20.9247 15.6098 20.4879 16.0466 20.4879 16.5854C20.4879 17.1242 20.9247 17.561 21.4635 17.561ZM25.3661 18.5366C25.3661 19.0754 24.9293 19.5122 24.3905 19.5122C23.8517 19.5122 23.4149 19.0754 23.4149 18.5366C23.4149 17.9978 23.8517 17.561 24.3905 17.561C24.9293 17.561 25.3661 17.9978 25.3661 18.5366ZM21.4635 21.4634C22.0024 21.4634 22.4392 21.0266 22.4392 20.4878C22.4392 19.949 22.0024 19.5122 21.4635 19.5122C20.9247 19.5122 20.4879 19.949 20.4879 20.4878C20.4879 21.0266 20.9247 21.4634 21.4635 21.4634ZM24.3905 11.7073C24.9293 11.7073 25.3661 11.2705 25.3661 10.7317C25.3661 10.1929 24.9293 9.7561 24.3905 9.7561C23.8517 9.7561 23.4149 10.1929 23.4149 10.7317C23.4149 11.2705 23.8517 11.7073 24.3905 11.7073ZM25.3661 22.439C25.3661 22.9778 24.9293 23.4146 24.3905 23.4146C23.8517 23.4146 23.4149 22.9778 23.4149 22.439C23.4149 21.9002 23.8517 21.4634 24.3905 21.4634C24.9293 21.4634 25.3661 21.9002 25.3661 22.439ZM18.5368 23.4146C19.0756 23.4146 19.5124 22.9778 19.5124 22.439C19.5124 21.9002 19.0756 21.4634 18.5368 21.4634C17.998 21.4634 17.5612 21.9002 17.5612 22.439C17.5612 22.9778 17.998 23.4146 18.5368 23.4146ZM19.5124 18.5366C19.5124 19.0754 19.0756 19.5122 18.5368 19.5122C17.998 19.5122 17.5612 19.0754 17.5612 18.5366C17.5612 17.9978 17.998 17.561 18.5368 17.561C19.0756 17.561 19.5124 17.9978 19.5124 18.5366ZM15.6099 21.4634C16.1487 21.4634 16.5855 21.0266 16.5855 20.4878C16.5855 19.949 16.1487 19.5122 15.6099 19.5122C15.071 19.5122 14.6343 19.949 14.6343 20.4878C14.6343 21.0266 15.071 21.4634 15.6099 21.4634ZM22.4392 12.683C22.4392 13.2218 22.0024 13.6586 21.4635 13.6586C20.9247 13.6586 20.4879 13.2218 20.4879 12.683C20.4879 12.1441 20.9247 11.7074 21.4635 11.7074C22.0024 11.7074 22.4392 12.1441 22.4392 12.683ZM27.3172 13.6586C27.856 13.6586 28.2928 13.2218 28.2928 12.683C28.2928 12.1441 27.856 11.7074 27.3172 11.7074C26.7784 11.7074 26.3416 12.1441 26.3416 12.683C26.3416 13.2218 26.7784 13.6586 27.3172 13.6586ZM28.2928 20.4878C28.2928 21.0266 27.856 21.4634 27.3172 21.4634C26.7784 21.4634 26.3416 21.0266 26.3416 20.4878C26.3416 19.949 26.7784 19.5122 27.3172 19.5122C27.856 19.5122 28.2928 19.949 28.2928 20.4878ZM24.3905 15.6097C24.9293 15.6097 25.3661 15.173 25.3661 14.6341C25.3661 14.0953 24.9293 13.6585 24.3905 13.6585C23.8517 13.6585 23.4149 14.0953 23.4149 14.6341C23.4149 15.173 23.8517 15.6097 24.3905 15.6097ZM28.2928 16.5854C28.2928 17.1242 27.856 17.561 27.3172 17.561C26.7784 17.561 26.3416 17.1242 26.3416 16.5854C26.3416 16.0466 26.7784 15.6098 27.3172 15.6098C27.856 15.6098 28.2928 16.0466 28.2928 16.5854Z" fill="#BF5F06"/>
</svg>
