<svg width="193" height="43" viewBox="0 0 193 43" fill="none" xmlns="http://www.w3.org/2000/svg">
<g id="Logo">
<g id="Group 9">
<g id="Group 3">
<path id="Vector" d="M33.0655 27.754C37.2234 27.1117 41.7116 29.5239 41.9007 29.6271C42.0582 29.7128 42.19 29.8404 42.282 29.9961C42.3741 30.1518 42.423 30.3298 42.4234 30.5111C42.4238 30.6924 42.3757 30.8701 42.2843 31.0252C42.1929 31.1803 42.0617 31.307 41.9046 31.3917C39.7562 32.5868 37.6765 33.9046 35.6754 35.339C34.7246 36.0255 33.6273 36.4739 32.472 36.6481C30.7477 36.8724 28.9934 36.6392 27.379 35.9713C27.379 35.9713 25.8678 35.5272 25.8651 34.5276C25.8637 34.0278 26.8498 32.5454 26.8498 32.5454C26.8498 32.5454 28.2901 30.2013 29.3728 29.3667C30.4555 28.5321 31.7228 27.9787 33.0655 27.754Z" fill="#302500"/>
<path id="Vector_2" d="M12.524 31.0148C13.896 31.2124 16.3225 32.5532 16.3225 32.5532L17.5205 35.8061C16.4066 37.1822 14.956 38.247 13.3094 38.8975C12.1944 39.3126 10.9974 39.4596 9.81516 39.3266C7.33198 39.0551 4.83539 38.9248 2.33744 38.9363C2.15618 38.9393 1.97749 38.8931 1.82049 38.8024C1.66349 38.7118 1.53408 38.5802 1.44611 38.4217C1.35814 38.2632 1.31491 38.0837 1.32105 37.9025C1.3272 37.7213 1.38248 37.5452 1.48098 37.393C1.59929 37.2102 4.42531 32.8989 8.44566 31.4187C9.75232 30.9557 11.1519 30.8171 12.524 31.0148Z" fill="#302500"/>
<g id="Group 7">
<g id="Group 6">
<g id="Vector_3">
<mask id="path-3-outside-1" maskUnits="userSpaceOnUse" x="29.5327" y="19.606" width="10" height="9" fill="black">
<rect fill="white" x="29.5327" y="19.606" width="10" height="9"/>
<path d="M35.0388 26.2671C35.9924 26.2838 36.9273 26.0011 37.7119 25.4588C37.5396 24.5207 37.0786 23.6608 36.3929 22.9978C35.7072 22.3349 34.8313 21.903 33.888 21.7625L32.8308 21.606C32.8187 21.6569 32.8054 21.7095 32.7917 21.763C32.6679 22.2599 32.5061 22.7465 32.3078 23.2186C32.193 23.4958 32.0695 23.7619 31.9386 24.0158C31.8874 24.1152 31.8301 24.2036 31.7766 24.2992C31.6961 24.4429 31.6182 24.5916 31.5327 24.7261L32.3956 25.3657C33.1607 25.9351 34.0851 26.2504 35.0388 26.2671Z"/>
</mask>
<path d="M35.0388 26.2671C35.9924 26.2838 36.9273 26.0011 37.7119 25.4588C37.5396 24.5207 37.0786 23.6608 36.3929 22.9978C35.7072 22.3349 34.8313 21.903 33.888 21.7625L32.8308 21.606C32.8187 21.6569 32.8054 21.7095 32.7917 21.763C32.6679 22.2599 32.5061 22.7465 32.3078 23.2186C32.193 23.4958 32.0695 23.7619 31.9386 24.0158C31.8874 24.1152 31.8301 24.2036 31.7766 24.2992C31.6961 24.4429 31.6182 24.5916 31.5327 24.7261L32.3956 25.3657C33.1607 25.9351 34.0851 26.2504 35.0388 26.2671Z" fill="#F3BE00"/>
<path d="M35.0388 26.2671C35.9924 26.2838 36.9273 26.0011 37.7119 25.4588C37.5396 24.5207 37.0786 23.6608 36.3929 22.9978C35.7072 22.3349 34.8313 21.903 33.888 21.7625L32.8308 21.606C32.8187 21.6569 32.8054 21.7095 32.7917 21.763C32.6679 22.2599 32.5061 22.7465 32.3078 23.2186C32.193 23.4958 32.0695 23.7619 31.9386 24.0158C31.8874 24.1152 31.8301 24.2036 31.7766 24.2992C31.6961 24.4429 31.6182 24.5916 31.5327 24.7261L32.3956 25.3657C33.1607 25.9351 34.0851 26.2504 35.0388 26.2671Z" stroke="#302500" stroke-width="3" stroke-linejoin="round" mask="url(#path-3-outside-1)"/>
</g>
<g id="Vector_4">
<mask id="path-4-outside-2" maskUnits="userSpaceOnUse" x="4.27734" y="9.72144" width="10" height="9" fill="black">
<rect fill="white" x="4.27734" y="9.72144" width="10" height="9"/>
<path d="M8.95043 11.7221C7.9968 11.7054 7.06193 11.9881 6.27734 12.5304C6.44961 13.4685 6.91064 14.3285 7.59634 14.9914C8.28204 15.6543 9.15786 16.0862 10.1012 16.2267L11.1584 16.3832C11.1705 16.3324 11.1838 16.2798 11.1975 16.2263C11.3213 15.7294 11.4831 15.2427 11.6814 14.7706C11.7962 14.4935 11.9198 14.2274 12.0506 13.9734C12.1018 13.8741 12.1591 13.7856 12.2126 13.69C12.2931 13.5463 12.371 13.3976 12.4565 13.2632L11.5936 12.6236C10.8285 12.0541 9.90406 11.7388 8.95043 11.7221Z"/>
</mask>
<path d="M8.95043 11.7221C7.9968 11.7054 7.06193 11.9881 6.27734 12.5304C6.44961 13.4685 6.91064 14.3285 7.59634 14.9914C8.28204 15.6543 9.15786 16.0862 10.1012 16.2267L11.1584 16.3832C11.1705 16.3324 11.1838 16.2798 11.1975 16.2263C11.3213 15.7294 11.4831 15.2427 11.6814 14.7706C11.7962 14.4935 11.9198 14.2274 12.0506 13.9734C12.1018 13.8741 12.1591 13.7856 12.2126 13.69C12.2931 13.5463 12.371 13.3976 12.4565 13.2632L11.5936 12.6236C10.8285 12.0541 9.90406 11.7388 8.95043 11.7221Z" fill="#F3BE00"/>
<path d="M8.95043 11.7221C7.9968 11.7054 7.06193 11.9881 6.27734 12.5304C6.44961 13.4685 6.91064 14.3285 7.59634 14.9914C8.28204 15.6543 9.15786 16.0862 10.1012 16.2267L11.1584 16.3832C11.1705 16.3324 11.1838 16.2798 11.1975 16.2263C11.3213 15.7294 11.4831 15.2427 11.6814 14.7706C11.7962 14.4935 11.9198 14.2274 12.0506 13.9734C12.1018 13.8741 12.1591 13.7856 12.2126 13.69C12.2931 13.5463 12.371 13.3976 12.4565 13.2632L11.5936 12.6236C10.8285 12.0541 9.90406 11.7388 8.95043 11.7221Z" stroke="#302500" stroke-width="3" stroke-linejoin="round" mask="url(#path-4-outside-2)"/>
</g>
<g id="Vector_5">
<mask id="path-5-outside-3" maskUnits="userSpaceOnUse" x="12.7214" y="26.5327" width="9" height="10" fill="black">
<rect fill="white" x="12.7214" y="26.5327" width="9" height="10"/>
<path d="M14.7221 32.0388C14.7054 32.9924 14.9881 33.9273 15.5304 34.7119C16.4685 34.5396 17.3285 34.0786 17.9914 33.3929C18.6543 32.7072 19.0862 31.8314 19.2267 30.888L19.3832 29.8308C19.3323 29.8187 19.2797 29.8054 19.2262 29.7917C18.7293 29.6679 18.2427 29.5061 17.7706 29.3078C17.4934 29.193 17.2273 29.0695 16.9734 28.9386C16.874 28.8874 16.7856 28.8301 16.69 28.7766C16.5463 28.6961 16.3976 28.6182 16.2631 28.5327L15.6235 29.3956C15.0541 30.1607 14.7388 31.0851 14.7221 32.0388Z"/>
</mask>
<path d="M14.7221 32.0388C14.7054 32.9924 14.9881 33.9273 15.5304 34.7119C16.4685 34.5396 17.3285 34.0786 17.9914 33.3929C18.6543 32.7072 19.0862 31.8314 19.2267 30.888L19.3832 29.8308C19.3323 29.8187 19.2797 29.8054 19.2262 29.7917C18.7293 29.6679 18.2427 29.5061 17.7706 29.3078C17.4934 29.193 17.2273 29.0695 16.9734 28.9386C16.874 28.8874 16.7856 28.8301 16.69 28.7766C16.5463 28.6961 16.3976 28.6182 16.2631 28.5327L15.6235 29.3956C15.0541 30.1607 14.7388 31.0851 14.7221 32.0388Z" fill="#F3BE00"/>
<path d="M14.7221 32.0388C14.7054 32.9924 14.9881 33.9273 15.5304 34.7119C16.4685 34.5396 17.3285 34.0786 17.9914 33.3929C18.6543 32.7072 19.0862 31.8314 19.2267 30.888L19.3832 29.8308C19.3323 29.8187 19.2797 29.8054 19.2262 29.7917C18.7293 29.6679 18.2427 29.5061 17.7706 29.3078C17.4934 29.193 17.2273 29.0695 16.9734 28.9386C16.874 28.8874 16.7856 28.8301 16.69 28.7766C16.5463 28.6961 16.3976 28.6182 16.2631 28.5327L15.6235 29.3956C15.0541 30.1607 14.7388 31.0851 14.7221 32.0388Z" stroke="#302500" stroke-width="3" stroke-linejoin="round" mask="url(#path-5-outside-3)"/>
</g>
<g id="Vector_6">
<mask id="path-6-outside-4" maskUnits="userSpaceOnUse" x="22.606" y="1.27734" width="9" height="10" fill="black">
<rect fill="white" x="22.606" y="1.27734" width="9" height="10"/>
<path d="M29.2671 5.95044C29.2838 4.9968 29.0011 4.06193 28.4588 3.27734C27.5207 3.44961 26.6608 3.91065 25.9978 4.59634C25.3349 5.28204 24.903 6.15786 24.7625 7.10121L24.606 8.1584C24.6569 8.17048 24.7095 8.18382 24.763 8.19755C25.2599 8.32132 25.7465 8.48309 26.2186 8.68143C26.4958 8.79623 26.7619 8.91976 27.0158 9.05061C27.1152 9.10183 27.2036 9.15912 27.2992 9.21258C27.4429 9.29311 27.5916 9.37105 27.7261 9.4565L28.3657 8.59358C28.9351 7.82846 29.2504 6.90407 29.2671 5.95044Z"/>
</mask>
<path d="M29.2671 5.95044C29.2838 4.9968 29.0011 4.06193 28.4588 3.27734C27.5207 3.44961 26.6608 3.91065 25.9978 4.59634C25.3349 5.28204 24.903 6.15786 24.7625 7.10121L24.606 8.1584C24.6569 8.17048 24.7095 8.18382 24.763 8.19755C25.2599 8.32132 25.7465 8.48309 26.2186 8.68143C26.4958 8.79623 26.7619 8.91976 27.0158 9.05061C27.1152 9.10183 27.2036 9.15912 27.2992 9.21258C27.4429 9.29311 27.5916 9.37105 27.7261 9.4565L28.3657 8.59358C28.9351 7.82846 29.2504 6.90407 29.2671 5.95044Z" fill="#F3BE00"/>
<path d="M29.2671 5.95044C29.2838 4.9968 29.0011 4.06193 28.4588 3.27734C27.5207 3.44961 26.6608 3.91065 25.9978 4.59634C25.3349 5.28204 24.903 6.15786 24.7625 7.10121L24.606 8.1584C24.6569 8.17048 24.7095 8.18382 24.763 8.19755C25.2599 8.32132 25.7465 8.48309 26.2186 8.68143C26.4958 8.79623 26.7619 8.91976 27.0158 9.05061C27.1152 9.10183 27.2036 9.15912 27.2992 9.21258C27.4429 9.29311 27.5916 9.37105 27.7261 9.4565L28.3657 8.59358C28.9351 7.82846 29.2504 6.90407 29.2671 5.95044Z" stroke="#302500" stroke-width="3" stroke-linejoin="round" mask="url(#path-6-outside-4)"/>
</g>
<g id="Vector_7">
<mask id="path-7-outside-5" maskUnits="userSpaceOnUse" x="4.30994" y="19.6863" width="10" height="9" fill="black">
<rect fill="white" x="4.30994" y="19.6863" width="10" height="9"/>
<path d="M7.62855 23.0758C6.94241 23.7383 6.48125 24.5993 6.30994 25.5375C7.09507 26.079 8.02916 26.3611 8.98278 26.345C9.93639 26.3289 10.8611 26.015 11.6275 25.4473L12.4857 24.8104C12.4583 24.7659 12.4305 24.7193 12.4024 24.6718C12.1386 24.2329 11.9088 23.7744 11.7153 23.3003C11.6004 23.0232 11.4996 22.7477 11.4126 22.4756C11.3786 22.3691 11.3566 22.2661 11.3267 22.1606C11.2821 22.0021 11.232 21.8418 11.1974 21.6863L10.1349 21.8442C9.19125 21.9826 8.31468 22.4133 7.62855 23.0758Z"/>
</mask>
<path d="M7.62855 23.0758C6.94241 23.7383 6.48125 24.5993 6.30994 25.5375C7.09507 26.079 8.02916 26.3611 8.98278 26.345C9.93639 26.3289 10.8611 26.015 11.6275 25.4473L12.4857 24.8104C12.4583 24.7659 12.4305 24.7193 12.4024 24.6718C12.1386 24.2329 11.9088 23.7744 11.7153 23.3003C11.6004 23.0232 11.4996 22.7477 11.4126 22.4756C11.3786 22.3691 11.3566 22.2661 11.3267 22.1606C11.2821 22.0021 11.232 21.8418 11.1974 21.6863L10.1349 21.8442C9.19125 21.9826 8.31468 22.4133 7.62855 23.0758Z" fill="#F3BE00"/>
<path d="M7.62855 23.0758C6.94241 23.7383 6.48125 24.5993 6.30994 25.5375C7.09507 26.079 8.02916 26.3611 8.98278 26.345C9.93639 26.3289 10.8611 26.015 11.6275 25.4473L12.4857 24.8104C12.4583 24.7659 12.4305 24.7193 12.4024 24.6718C12.1386 24.2329 11.9088 23.7744 11.7153 23.3003C11.6004 23.0232 11.4996 22.7477 11.4126 22.4756C11.3786 22.3691 11.3566 22.2661 11.3267 22.1606C11.2821 22.0021 11.232 21.8418 11.1974 21.6863L10.1349 21.8442C9.19125 21.9826 8.31468 22.4133 7.62855 23.0758Z" stroke="#302500" stroke-width="3" stroke-linejoin="round" mask="url(#path-7-outside-5)"/>
</g>
<g id="Vector_8">
<mask id="path-8-outside-6" maskUnits="userSpaceOnUse" x="29.5035" y="9.64355" width="10" height="9" fill="black">
<rect fill="white" x="29.5035" y="9.64355" width="10" height="9"/>
<path d="M36.3607 14.9134C37.0468 14.2509 37.5079 13.39 37.6793 12.4517C36.8941 11.9102 35.96 11.6281 35.0064 11.6442C34.0528 11.6603 33.1281 11.9742 32.3617 12.5419L31.5035 13.1788C31.5309 13.2233 31.5587 13.2699 31.5868 13.3175C31.8507 13.7563 32.0804 14.2148 32.274 14.6889C32.3888 14.9661 32.4896 15.2416 32.5766 15.5137C32.6107 15.6201 32.6326 15.7232 32.6625 15.8286C32.7071 15.9872 32.7572 16.1474 32.7918 16.3029L33.8543 16.145C34.798 16.0066 35.6745 15.5759 36.3607 14.9134Z"/>
</mask>
<path d="M36.3607 14.9134C37.0468 14.2509 37.5079 13.39 37.6793 12.4517C36.8941 11.9102 35.96 11.6281 35.0064 11.6442C34.0528 11.6603 33.1281 11.9742 32.3617 12.5419L31.5035 13.1788C31.5309 13.2233 31.5587 13.2699 31.5868 13.3175C31.8507 13.7563 32.0804 14.2148 32.274 14.6889C32.3888 14.9661 32.4896 15.2416 32.5766 15.5137C32.6107 15.6201 32.6326 15.7232 32.6625 15.8286C32.7071 15.9872 32.7572 16.1474 32.7918 16.3029L33.8543 16.145C34.798 16.0066 35.6745 15.5759 36.3607 14.9134Z" fill="#F3BE00"/>
<path d="M36.3607 14.9134C37.0468 14.2509 37.5079 13.39 37.6793 12.4517C36.8941 11.9102 35.96 11.6281 35.0064 11.6442C34.0528 11.6603 33.1281 11.9742 32.3617 12.5419L31.5035 13.1788C31.5309 13.2233 31.5587 13.2699 31.5868 13.3175C31.8507 13.7563 32.0804 14.2148 32.274 14.6889C32.3888 14.9661 32.4896 15.2416 32.5766 15.5137C32.6107 15.6201 32.6326 15.7232 32.6625 15.8286C32.7071 15.9872 32.7572 16.1474 32.7918 16.3029L33.8543 16.145C34.798 16.0066 35.6745 15.5759 36.3607 14.9134Z" stroke="#302500" stroke-width="3" stroke-linejoin="round" mask="url(#path-8-outside-6)"/>
</g>
<g id="Vector_9">
<mask id="path-9-outside-7" maskUnits="userSpaceOnUse" x="12.6436" y="1.30994" width="9" height="10" fill="black">
<rect fill="white" x="12.6436" y="1.30994" width="9" height="10"/>
<path d="M17.9134 4.62854C17.2509 3.94241 16.39 3.48125 15.4517 3.30994C14.9102 4.09506 14.6281 5.02916 14.6442 5.98277C14.6603 6.93639 14.9742 7.8611 15.5419 8.62749L16.1788 9.48569C16.2233 9.45827 16.2699 9.43052 16.3175 9.40238C16.7564 9.13855 17.2149 8.90882 17.6889 8.71524C17.9661 8.60044 18.2416 8.49964 18.5137 8.41258C18.6202 8.37855 18.7232 8.35655 18.8286 8.32674C18.9872 8.28205 19.1474 8.23202 19.3029 8.19738L19.145 7.13493C19.0067 6.19124 18.5759 5.31467 17.9134 4.62854Z"/>
</mask>
<path d="M17.9134 4.62854C17.2509 3.94241 16.39 3.48125 15.4517 3.30994C14.9102 4.09506 14.6281 5.02916 14.6442 5.98277C14.6603 6.93639 14.9742 7.8611 15.5419 8.62749L16.1788 9.48569C16.2233 9.45827 16.2699 9.43052 16.3175 9.40238C16.7564 9.13855 17.2149 8.90882 17.6889 8.71524C17.9661 8.60044 18.2416 8.49964 18.5137 8.41258C18.6202 8.37855 18.7232 8.35655 18.8286 8.32674C18.9872 8.28205 19.1474 8.23202 19.3029 8.19738L19.145 7.13493C19.0067 6.19124 18.5759 5.31467 17.9134 4.62854Z" fill="#F3BE00"/>
<path d="M17.9134 4.62854C17.2509 3.94241 16.39 3.48125 15.4517 3.30994C14.9102 4.09506 14.6281 5.02916 14.6442 5.98277C14.6603 6.93639 14.9742 7.8611 15.5419 8.62749L16.1788 9.48569C16.2233 9.45827 16.2699 9.43052 16.3175 9.40238C16.7564 9.13855 17.2149 8.90882 17.6889 8.71524C17.9661 8.60044 18.2416 8.49964 18.5137 8.41258C18.6202 8.37855 18.7232 8.35655 18.8286 8.32674C18.9872 8.28205 19.1474 8.23202 19.3029 8.19738L19.145 7.13493C19.0067 6.19124 18.5759 5.31467 17.9134 4.62854Z" stroke="#302500" stroke-width="3" stroke-linejoin="round" mask="url(#path-9-outside-7)"/>
</g>
<g id="Vector_10">
<mask id="path-10-outside-8" maskUnits="userSpaceOnUse" x="22.6863" y="26.5035" width="9" height="10" fill="black">
<rect fill="white" x="22.6863" y="26.5035" width="9" height="10"/>
<path d="M26.0758 33.3607C26.7383 34.0468 27.5993 34.508 28.5375 34.6793C29.079 33.8942 29.3611 32.9601 29.345 32.0065C29.3289 31.0528 29.015 30.1281 28.4473 29.3617L27.8104 28.5035C27.7659 28.531 27.7193 28.5587 27.6718 28.5868C27.2329 28.8507 26.7744 29.0804 26.3003 29.274C26.0232 29.3888 25.7477 29.4896 25.4756 29.5766C25.3691 29.6107 25.2661 29.6327 25.1606 29.6625C25.0021 29.7072 24.8418 29.7572 24.6863 29.7918L24.8442 30.8543C24.9826 31.798 25.4133 32.6746 26.0758 33.3607Z"/>
</mask>
<path d="M26.0758 33.3607C26.7383 34.0468 27.5993 34.508 28.5375 34.6793C29.079 33.8942 29.3611 32.9601 29.345 32.0065C29.3289 31.0528 29.015 30.1281 28.4473 29.3617L27.8104 28.5035C27.7659 28.531 27.7193 28.5587 27.6718 28.5868C27.2329 28.8507 26.7744 29.0804 26.3003 29.274C26.0232 29.3888 25.7477 29.4896 25.4756 29.5766C25.3691 29.6107 25.2661 29.6327 25.1606 29.6625C25.0021 29.7072 24.8418 29.7572 24.6863 29.7918L24.8442 30.8543C24.9826 31.798 25.4133 32.6746 26.0758 33.3607Z" fill="#F3BE00"/>
<path d="M26.0758 33.3607C26.7383 34.0468 27.5993 34.508 28.5375 34.6793C29.079 33.8942 29.3611 32.9601 29.345 32.0065C29.3289 31.0528 29.015 30.1281 28.4473 29.3617L27.8104 28.5035C27.7659 28.531 27.7193 28.5587 27.6718 28.5868C27.2329 28.8507 26.7744 29.0804 26.3003 29.274C26.0232 29.3888 25.7477 29.4896 25.4756 29.5766C25.3691 29.6107 25.2661 29.6327 25.1606 29.6625C25.0021 29.7072 24.8418 29.7572 24.6863 29.7918L24.8442 30.8543C24.9826 31.798 25.4133 32.6746 26.0758 33.3607Z" stroke="#302500" stroke-width="3" stroke-linejoin="round" mask="url(#path-10-outside-8)"/>
</g>
</g>
<g id="Group 1">
<g id="Vector_11">
<mask id="path-11-outside-9" maskUnits="userSpaceOnUse" x="31" y="14.864" width="10" height="8" fill="black">
<rect fill="white" x="31" y="14.864" width="10" height="8"/>
<path d="M36.8289 20.7217C37.7163 20.3722 38.4719 19.7533 38.9892 18.952C38.4711 18.1513 37.716 17.5332 36.8288 17.1832C35.9416 16.8331 34.9672 16.7692 34.0419 17.0004L33.0053 17.2604C33.0136 17.312 33.0214 17.3657 33.0292 17.4204C33.105 17.9268 33.1418 18.4384 33.1392 18.9504C33.1392 19.2504 33.1269 19.5435 33.1032 19.8282C33.0939 19.9396 33.0748 20.0432 33.062 20.152C33.0426 20.3156 33.0275 20.4828 33 20.6397L34.042 20.9004C34.9668 21.1337 35.9415 21.0713 36.8289 20.7217Z"/>
</mask>
<path d="M36.8289 20.7217C37.7163 20.3722 38.4719 19.7533 38.9892 18.952C38.4711 18.1513 37.716 17.5332 36.8288 17.1832C35.9416 16.8331 34.9672 16.7692 34.0419 17.0004L33.0053 17.2604C33.0136 17.312 33.0214 17.3657 33.0292 17.4204C33.105 17.9268 33.1418 18.4384 33.1392 18.9504C33.1392 19.2504 33.1269 19.5435 33.1032 19.8282C33.0939 19.9396 33.0748 20.0432 33.062 20.152C33.0426 20.3156 33.0275 20.4828 33 20.6397L34.042 20.9004C34.9668 21.1337 35.9415 21.0713 36.8289 20.7217Z" fill="#F3BE00"/>
<path d="M36.8289 20.7217C37.7163 20.3722 38.4719 19.7533 38.9892 18.952C38.4711 18.1513 37.716 17.5332 36.8288 17.1832C35.9416 16.8331 34.9672 16.7692 34.0419 17.0004L33.0053 17.2604C33.0136 17.312 33.0214 17.3657 33.0292 17.4204C33.105 17.9268 33.1418 18.4384 33.1392 18.9504C33.1392 19.2504 33.1269 19.5435 33.1032 19.8282C33.0939 19.9396 33.0748 20.0432 33.062 20.152C33.0426 20.3156 33.0275 20.4828 33 20.6397L34.042 20.9004C34.9668 21.1337 35.9415 21.0713 36.8289 20.7217Z" stroke="#302500" stroke-width="3" stroke-linejoin="round" mask="url(#path-11-outside-9)"/>
</g>
<g id="Vector_12">
<mask id="path-12-outside-10" maskUnits="userSpaceOnUse" x="3.00001" y="14.9502" width="10" height="8" fill="black">
<rect fill="white" x="3.00001" y="14.9502" width="10" height="8"/>
<path d="M7.1603 17.2674C6.27287 17.6169 5.51734 18.2359 5.00001 19.0372C5.51815 19.8379 6.27318 20.456 7.16038 20.806C8.04757 21.1561 9.02201 21.22 9.94731 20.9888L10.9839 20.7288C10.9756 20.6772 10.9678 20.6235 10.96 20.5688C10.8842 20.0623 10.8474 19.5508 10.85 19.0388C10.85 18.7388 10.8623 18.4457 10.886 18.161C10.8953 18.0496 10.9144 17.946 10.9272 17.8372C10.9466 17.6736 10.9617 17.5064 10.9892 17.3495L9.94721 17.0888C9.02241 16.8554 8.04773 16.9179 7.1603 17.2674Z"/>
</mask>
<path d="M7.1603 17.2674C6.27287 17.6169 5.51734 18.2359 5.00001 19.0372C5.51815 19.8379 6.27318 20.456 7.16038 20.806C8.04757 21.1561 9.02201 21.22 9.94731 20.9888L10.9839 20.7288C10.9756 20.6772 10.9678 20.6235 10.96 20.5688C10.8842 20.0623 10.8474 19.5508 10.85 19.0388C10.85 18.7388 10.8623 18.4457 10.886 18.161C10.8953 18.0496 10.9144 17.946 10.9272 17.8372C10.9466 17.6736 10.9617 17.5064 10.9892 17.3495L9.94721 17.0888C9.02241 16.8554 8.04773 16.9179 7.1603 17.2674Z" fill="#F3BE00"/>
<path d="M7.1603 17.2674C6.27287 17.6169 5.51734 18.2359 5.00001 19.0372C5.51815 19.8379 6.27318 20.456 7.16038 20.806C8.04757 21.1561 9.02201 21.22 9.94731 20.9888L10.9839 20.7288C10.9756 20.6772 10.9678 20.6235 10.96 20.5688C10.8842 20.0623 10.8474 19.5508 10.85 19.0388C10.85 18.7388 10.8623 18.4457 10.886 18.161C10.8953 18.0496 10.9144 17.946 10.9272 17.8372C10.9466 17.6736 10.9617 17.5064 10.9892 17.3495L9.94721 17.0888C9.02241 16.8554 8.04773 16.9179 7.1603 17.2674Z" stroke="#302500" stroke-width="3" stroke-linejoin="round" mask="url(#path-12-outside-10)"/>
</g>
<g id="Vector_13">
<mask id="path-13-outside-11" maskUnits="userSpaceOnUse" x="18.1252" y="28" width="8" height="10" fill="black">
<rect fill="white" x="18.1252" y="28" width="8" height="10"/>
<path d="M20.2675 33.8289C20.617 34.7163 21.2359 35.4719 22.0372 35.9892C22.8379 35.4711 23.456 34.716 23.8061 33.8288C24.1561 32.9416 24.22 31.9672 23.9888 31.0419L23.7288 30.0053C23.6772 30.0136 23.6235 30.0214 23.5688 30.0292C23.0624 30.105 22.5509 30.1418 22.0388 30.1392C21.7388 30.1392 21.4457 30.1269 21.161 30.1032C21.0496 30.0939 20.946 30.0748 20.8372 30.062C20.6736 30.0426 20.5064 30.0275 20.3495 30L20.0888 31.042C19.8555 31.9668 19.918 32.9415 20.2675 33.8289Z"/>
</mask>
<path d="M20.2675 33.8289C20.617 34.7163 21.2359 35.4719 22.0372 35.9892C22.8379 35.4711 23.456 34.716 23.8061 33.8288C24.1561 32.9416 24.22 31.9672 23.9888 31.0419L23.7288 30.0053C23.6772 30.0136 23.6235 30.0214 23.5688 30.0292C23.0624 30.105 22.5509 30.1418 22.0388 30.1392C21.7388 30.1392 21.4457 30.1269 21.161 30.1032C21.0496 30.0939 20.946 30.0748 20.8372 30.062C20.6736 30.0426 20.5064 30.0275 20.3495 30L20.0888 31.042C19.8555 31.9668 19.918 32.9415 20.2675 33.8289Z" fill="#F3BE00"/>
<path d="M20.2675 33.8289C20.617 34.7163 21.2359 35.4719 22.0372 35.9892C22.8379 35.4711 23.456 34.716 23.8061 33.8288C24.1561 32.9416 24.22 31.9672 23.9888 31.0419L23.7288 30.0053C23.6772 30.0136 23.6235 30.0214 23.5688 30.0292C23.0624 30.105 22.5509 30.1418 22.0388 30.1392C21.7388 30.1392 21.4457 30.1269 21.161 30.1032C21.0496 30.0939 20.946 30.0748 20.8372 30.062C20.6736 30.0426 20.5064 30.0275 20.3495 30L20.0888 31.042C19.8555 31.9668 19.918 32.9415 20.2675 33.8289Z" stroke="#302500" stroke-width="3" stroke-linejoin="round" mask="url(#path-13-outside-11)"/>
</g>
<g id="Vector_14">
<mask id="path-14-outside-12" maskUnits="userSpaceOnUse" x="18.039" y="-2.62268e-07" width="8" height="10" fill="black">
<rect fill="white" x="18.039" y="-2.62268e-07" width="8" height="10"/>
<path d="M23.7217 4.16029C23.3722 3.27286 22.7533 2.51733 21.952 2C21.1513 2.51814 20.5332 3.27317 20.1831 4.16037C19.8331 5.04756 19.7692 6.022 20.0004 6.9473L20.2604 7.9839C20.312 7.9756 20.3657 7.9678 20.4204 7.96C20.9268 7.8842 21.4383 7.84743 21.9504 7.85C22.2504 7.85 22.5435 7.8623 22.8282 7.886C22.9396 7.8953 23.0432 7.9144 23.152 7.9272C23.3156 7.9466 23.4828 7.9617 23.6397 7.9892L23.9004 6.9472C24.1337 6.0224 24.0712 5.04772 23.7217 4.16029Z"/>
</mask>
<path d="M23.7217 4.16029C23.3722 3.27286 22.7533 2.51733 21.952 2C21.1513 2.51814 20.5332 3.27317 20.1831 4.16037C19.8331 5.04756 19.7692 6.022 20.0004 6.9473L20.2604 7.9839C20.312 7.9756 20.3657 7.9678 20.4204 7.96C20.9268 7.8842 21.4383 7.84743 21.9504 7.85C22.2504 7.85 22.5435 7.8623 22.8282 7.886C22.9396 7.8953 23.0432 7.9144 23.152 7.9272C23.3156 7.9466 23.4828 7.9617 23.6397 7.9892L23.9004 6.9472C24.1337 6.0224 24.0712 5.04772 23.7217 4.16029Z" fill="#F3BE00"/>
<path d="M23.7217 4.16029C23.3722 3.27286 22.7533 2.51733 21.952 2C21.1513 2.51814 20.5332 3.27317 20.1831 4.16037C19.8331 5.04756 19.7692 6.022 20.0004 6.9473L20.2604 7.9839C20.312 7.9756 20.3657 7.9678 20.4204 7.96C20.9268 7.8842 21.4383 7.84743 21.9504 7.85C22.2504 7.85 22.5435 7.8623 22.8282 7.886C22.9396 7.8953 23.0432 7.9144 23.152 7.9272C23.3156 7.9466 23.4828 7.9617 23.6397 7.9892L23.9004 6.9472C24.1337 6.0224 24.0712 5.04772 23.7217 4.16029Z" stroke="#302500" stroke-width="3" stroke-linejoin="round" mask="url(#path-14-outside-12)"/>
</g>
<g id="Vector_15">
<mask id="path-15-outside-13" maskUnits="userSpaceOnUse" x="5.81969" y="22.6263" width="12.7279" height="12.7279" fill="black">
<rect fill="white" x="5.81969" y="22.6263" width="12.7279" height="12.7279"/>
<path d="M10.2839 28.2628C9.90354 29.1375 9.80695 30.1094 10.0077 31.0418C10.9403 31.2416 11.9113 31.1447 12.7861 30.7649C13.661 30.3851 14.3952 29.7413 14.886 28.9235L15.4351 28.0066C15.3928 27.976 15.3493 27.9436 15.3051 27.9104C14.8934 27.6059 14.5057 27.2702 14.1454 26.9063C13.9333 26.6942 13.7348 26.4782 13.5502 26.2602C13.478 26.1748 13.4183 26.0881 13.3504 26.0021C13.2484 25.8727 13.1409 25.7438 13.0494 25.6134L12.1282 26.1658C11.3093 26.6548 10.6643 27.3882 10.2839 28.2628Z"/>
</mask>
<path d="M10.2839 28.2628C9.90354 29.1375 9.80695 30.1094 10.0077 31.0418C10.9403 31.2416 11.9113 31.1447 12.7861 30.7649C13.661 30.3851 14.3952 29.7413 14.886 28.9235L15.4351 28.0066C15.3928 27.976 15.3493 27.9436 15.3051 27.9104C14.8934 27.6059 14.5057 27.2702 14.1454 26.9063C13.9333 26.6942 13.7348 26.4782 13.5502 26.2602C13.478 26.1748 13.4183 26.0881 13.3504 26.0021C13.2484 25.8727 13.1409 25.7438 13.0494 25.6134L12.1282 26.1658C11.3093 26.6548 10.6643 27.3882 10.2839 28.2628Z" fill="#F3BE00"/>
<path d="M10.2839 28.2628C9.90354 29.1375 9.80695 30.1094 10.0077 31.0418C10.9403 31.2416 11.9113 31.1447 12.7861 30.7649C13.661 30.3851 14.3952 29.7413 14.886 28.9235L15.4351 28.0066C15.3928 27.976 15.3493 27.9436 15.3051 27.9104C14.8934 27.6059 14.5057 27.2702 14.1454 26.9063C13.9333 26.6942 13.7348 26.4782 13.5502 26.2602C13.478 26.1748 13.4183 26.0881 13.3504 26.0021C13.2484 25.8727 13.1409 25.7438 13.0494 25.6134L12.1282 26.1658C11.3093 26.6548 10.6643 27.3882 10.2839 28.2628Z" stroke="#302500" stroke-width="3" stroke-linejoin="round" mask="url(#path-15-outside-13)"/>
</g>
<g id="Vector_16">
<mask id="path-16-outside-14" maskUnits="userSpaceOnUse" x="25.5577" y="2.76636" width="12.7279" height="12.7279" fill="black">
<rect fill="white" x="25.5577" y="2.76636" width="12.7279" height="12.7279"/>
<path d="M33.7053 9.72645C34.0857 8.8518 34.1823 7.87991 33.9815 6.94751C33.0489 6.74768 32.078 6.84452 31.2031 7.22434C30.3282 7.60415 29.594 8.24801 29.1032 9.06579L28.5541 9.98262C28.5964 10.0132 28.6399 10.0457 28.6841 10.0789C29.0958 10.3834 29.4835 10.719 29.8438 11.083C30.0559 11.2951 30.2545 11.511 30.439 11.7291C30.5112 11.8145 30.571 11.9012 30.6388 11.9872C30.7408 12.1166 30.8484 12.2455 30.9399 12.3759L31.861 11.8234C32.6799 11.3345 33.3249 10.6011 33.7053 9.72645Z"/>
</mask>
<path d="M33.7053 9.72645C34.0857 8.8518 34.1823 7.87991 33.9815 6.94751C33.0489 6.74768 32.078 6.84452 31.2031 7.22434C30.3282 7.60415 29.594 8.24801 29.1032 9.06579L28.5541 9.98262C28.5964 10.0132 28.6399 10.0457 28.6841 10.0789C29.0958 10.3834 29.4835 10.719 29.8438 11.083C30.0559 11.2951 30.2545 11.511 30.439 11.7291C30.5112 11.8145 30.571 11.9012 30.6388 11.9872C30.7408 12.1166 30.8484 12.2455 30.9399 12.3759L31.861 11.8234C32.6799 11.3345 33.3249 10.6011 33.7053 9.72645Z" fill="#F3BE00"/>
<path d="M33.7053 9.72645C34.0857 8.8518 34.1823 7.87991 33.9815 6.94751C33.0489 6.74768 32.078 6.84452 31.2031 7.22434C30.3282 7.60415 29.594 8.24801 29.1032 9.06579L28.5541 9.98262C28.5964 10.0132 28.6399 10.0457 28.6841 10.0789C29.0958 10.3834 29.4835 10.719 29.8438 11.083C30.0559 11.2951 30.2545 11.511 30.439 11.7291C30.5112 11.8145 30.571 11.9012 30.6388 11.9872C30.7408 12.1166 30.8484 12.2455 30.9399 12.3759L31.861 11.8234C32.6799 11.3345 33.3249 10.6011 33.7053 9.72645Z" stroke="#302500" stroke-width="3" stroke-linejoin="round" mask="url(#path-16-outside-14)"/>
</g>
<g id="Vector_17">
<mask id="path-17-outside-15" maskUnits="userSpaceOnUse" x="5.635" y="2.81968" width="12.7279" height="12.7279" fill="black">
<rect fill="white" x="5.635" y="2.81968" width="12.7279" height="12.7279"/>
<path d="M12.7264 7.2839C11.8518 6.90353 10.8799 6.80694 9.94751 7.00773C9.74768 7.94031 9.84452 8.91126 10.2243 9.78612C10.6042 10.661 11.248 11.3952 12.0658 11.886L12.9826 12.4351C13.0132 12.3928 13.0457 12.3493 13.0789 12.3051C13.3834 11.8934 13.719 11.5057 14.0829 11.1454C14.2951 10.9333 14.511 10.7347 14.7291 10.5502C14.8145 10.478 14.9012 10.4183 14.9872 10.3504C15.1166 10.2484 15.2455 10.1408 15.3759 10.0493L14.8234 9.1282C14.3345 8.30929 13.6011 7.66427 12.7264 7.2839Z"/>
</mask>
<path d="M12.7264 7.2839C11.8518 6.90353 10.8799 6.80694 9.94751 7.00773C9.74768 7.94031 9.84452 8.91126 10.2243 9.78612C10.6042 10.661 11.248 11.3952 12.0658 11.886L12.9826 12.4351C13.0132 12.3928 13.0457 12.3493 13.0789 12.3051C13.3834 11.8934 13.719 11.5057 14.0829 11.1454C14.2951 10.9333 14.511 10.7347 14.7291 10.5502C14.8145 10.478 14.9012 10.4183 14.9872 10.3504C15.1166 10.2484 15.2455 10.1408 15.3759 10.0493L14.8234 9.1282C14.3345 8.30929 13.6011 7.66427 12.7264 7.2839Z" fill="#F3BE00"/>
<path d="M12.7264 7.2839C11.8518 6.90353 10.8799 6.80694 9.94751 7.00773C9.74768 7.94031 9.84452 8.91126 10.2243 9.78612C10.6042 10.661 11.248 11.3952 12.0658 11.886L12.9826 12.4351C13.0132 12.3928 13.0457 12.3493 13.0789 12.3051C13.3834 11.8934 13.719 11.5057 14.0829 11.1454C14.2951 10.9333 14.511 10.7347 14.7291 10.5502C14.8145 10.478 14.9012 10.4183 14.9872 10.3504C15.1166 10.2484 15.2455 10.1408 15.3759 10.0493L14.8234 9.1282C14.3345 8.30929 13.6011 7.66427 12.7264 7.2839Z" stroke="#302500" stroke-width="3" stroke-linejoin="round" mask="url(#path-17-outside-15)"/>
</g>
<g id="Vector_18">
<mask id="path-18-outside-16" maskUnits="userSpaceOnUse" x="25.495" y="22.5577" width="12.7279" height="12.7279" fill="black">
<rect fill="white" x="25.495" y="22.5577" width="12.7279" height="12.7279"/>
<path d="M31.2628 30.7053C32.1375 31.0856 33.1094 31.1822 34.0418 30.9814C34.2416 30.0489 34.1447 29.0779 33.7649 28.2031C33.3851 27.3282 32.7413 26.594 31.9235 26.1032L31.0066 25.554C30.976 25.5964 30.9436 25.6399 30.9104 25.6841C30.6059 26.0958 30.2702 26.4835 29.9063 26.8437C29.6942 27.0559 29.4782 27.2544 29.2602 27.439C29.1748 27.5112 29.0881 27.5709 29.0021 27.6388C28.8727 27.7408 28.7438 27.8483 28.6134 27.9398L29.1658 28.861C29.6548 29.6799 30.3882 30.3249 31.2628 30.7053Z"/>
</mask>
<path d="M31.2628 30.7053C32.1375 31.0856 33.1094 31.1822 34.0418 30.9814C34.2416 30.0489 34.1447 29.0779 33.7649 28.2031C33.3851 27.3282 32.7413 26.594 31.9235 26.1032L31.0066 25.554C30.976 25.5964 30.9436 25.6399 30.9104 25.6841C30.6059 26.0958 30.2702 26.4835 29.9063 26.8437C29.6942 27.0559 29.4782 27.2544 29.2602 27.439C29.1748 27.5112 29.0881 27.5709 29.0021 27.6388C28.8727 27.7408 28.7438 27.8483 28.6134 27.9398L29.1658 28.861C29.6548 29.6799 30.3882 30.3249 31.2628 30.7053Z" fill="#F3BE00"/>
<path d="M31.2628 30.7053C32.1375 31.0856 33.1094 31.1822 34.0418 30.9814C34.2416 30.0489 34.1447 29.0779 33.7649 28.2031C33.3851 27.3282 32.7413 26.594 31.9235 26.1032L31.0066 25.554C30.976 25.5964 30.9436 25.6399 30.9104 25.6841C30.6059 26.0958 30.2702 26.4835 29.9063 26.8437C29.6942 27.0559 29.4782 27.2544 29.2602 27.439C29.1748 27.5112 29.0881 27.5709 29.0021 27.6388C28.8727 27.7408 28.7438 27.8483 28.6134 27.9398L29.1658 28.861C29.6548 29.6799 30.3882 30.3249 31.2628 30.7053Z" stroke="#302500" stroke-width="3" stroke-linejoin="round" mask="url(#path-18-outside-16)"/>
</g>
</g>
</g>
</g>
<path id="Subtract" fill-rule="evenodd" clip-rule="evenodd" d="M20 38.2269C20.1301 38.3253 20.2635 38.4194 20.4003 38.5093C20.4003 38.5093 21.4715 39 21.9629 39C22.4543 39 23.5048 38.5093 23.5048 38.5093C23.6685 38.45 23.8345 38.3559 24 38.2359V41.5C24 42.5 23.1046 43 22 43C20.8954 43 20 42.5 20 41.5V38.2269Z" fill="#302500"/>
<path id="Subtract_2" fill-rule="evenodd" clip-rule="evenodd" d="M22 29C27.5229 29 32 24.5228 32 19C32 13.4772 27.5229 9 22 9C16.4772 9 12 13.4772 12 19C12 24.5228 16.4772 29 22 29ZM20 13C20 13.5523 19.5523 14 19 14C18.4477 14 18 13.5523 18 13C18 12.4477 18.4477 12 19 12C19.5523 12 20 12.4477 20 13ZM16 16C16.5523 16 17 15.5523 17 15C17 14.4477 16.5523 14 16 14C15.4477 14 15 14.4477 15 15C15 15.5523 15.4477 16 16 16ZM16 20C16.5523 20 17 19.5523 17 19C17 18.4477 16.5523 18 16 18C15.4477 18 15 18.4477 15 19C15 19.5523 15.4477 20 16 20ZM20 17C20 17.5523 19.5523 18 19 18C18.4477 18 18 17.5523 18 17C18 16.4477 18.4477 16 19 16C19.5523 16 20 16.4477 20 17ZM22 20C22.5523 20 23 19.5523 23 19C23 18.4477 22.5523 18 22 18C21.4477 18 21 18.4477 21 19C21 19.5523 21.4477 20 22 20ZM26 21C26 21.5523 25.5523 22 25 22C24.4477 22 24 21.5523 24 21C24 20.4477 24.4477 20 25 20C25.5523 20 26 20.4477 26 21ZM22 24C22.5523 24 23 23.5523 23 23C23 22.4477 22.5523 22 22 22C21.4477 22 21 22.4477 21 23C21 23.5523 21.4477 24 22 24ZM25 14C25.5523 14 26 13.5523 26 13C26 12.4477 25.5523 12 25 12C24.4477 12 24 12.4477 24 13C24 13.5523 24.4477 14 25 14ZM26 25C26 25.5523 25.5523 26 25 26C24.4477 26 24 25.5523 24 25C24 24.4477 24.4477 24 25 24C25.5523 24 26 24.4477 26 25ZM19 26C19.5523 26 20 25.5523 20 25C20 24.4477 19.5523 24 19 24C18.4477 24 18 24.4477 18 25C18 25.5523 18.4477 26 19 26ZM20 21C20 21.5523 19.5523 22 19 22C18.4477 22 18 21.5523 18 21C18 20.4477 18.4477 20 19 20C19.5523 20 20 20.4477 20 21ZM16 24C16.5523 24 17 23.5523 17 23C17 22.4477 16.5523 22 16 22C15.4477 22 15 22.4477 15 23C15 23.5523 15.4477 24 16 24ZM23 15C23 15.5523 22.5523 16 22 16C21.4477 16 21 15.5523 21 15C21 14.4477 21.4477 14 22 14C22.5523 14 23 14.4477 23 15ZM28 16C28.5523 16 29 15.5523 29 15C29 14.4477 28.5523 14 28 14C27.4477 14 27 14.4477 27 15C27 15.5523 27.4477 16 28 16ZM29 23C29 23.5523 28.5523 24 28 24C27.4477 24 27 23.5523 27 23C27 22.4477 27.4477 22 28 22C28.5523 22 29 22.4477 29 23ZM25 18C25.5523 18 26 17.5523 26 17C26 16.4477 25.5523 16 25 16C24.4477 16 24 16.4477 24 17C24 17.5523 24.4477 18 25 18ZM29 19C29 19.5523 28.5523 20 28 20C27.4477 20 27 19.5523 27 19C27 18.4477 27.4477 18 28 18C28.5523 18 29 18.4477 29 19Z" fill="#302500"/>
</g>
<path id="Tournesol" d="M63.3288 13.192V16.456H58.1128V33H54.1448V16.456H48.9288V13.192H63.3288ZM79.2328 25.448C79.2328 26.6427 79.0622 27.7307 78.7208 28.712C78.3795 29.672 77.8995 30.504 77.2808 31.208C76.6622 31.912 75.9155 32.456 75.0408 32.84C74.1875 33.224 73.2275 33.416 72.1608 33.416C71.0942 33.416 70.1235 33.224 69.2488 32.84C68.3955 32.456 67.6488 31.912 67.0088 31.208C66.3902 30.504 65.9102 29.672 65.5688 28.712C65.2275 27.7307 65.0568 26.6427 65.0568 25.448C65.0568 24.2747 65.2275 23.208 65.5688 22.248C65.9315 21.2667 66.4222 20.4347 67.0408 19.752C67.6808 19.048 68.4382 18.5147 69.3128 18.152C70.1875 17.768 71.1368 17.576 72.1608 17.576C73.2062 17.576 74.1555 17.768 75.0088 18.152C75.8835 18.5147 76.6302 19.048 77.2488 19.752C77.8888 20.4347 78.3795 21.2667 78.7208 22.248C79.0622 23.208 79.2328 24.2747 79.2328 25.448ZM69.0568 25.48C69.0568 26.824 69.2915 27.912 69.7608 28.744C70.2515 29.576 71.0302 29.992 72.0968 29.992C73.1208 29.992 73.8888 29.576 74.4008 28.744C74.9342 27.912 75.2008 26.824 75.2008 25.48C75.2008 24.136 74.9555 23.0587 74.4648 22.248C73.9955 21.416 73.2275 21 72.1608 21C71.1368 21 70.3582 21.416 69.8248 22.248C69.3128 23.0587 69.0568 24.136 69.0568 25.48ZM94.1448 32.488C93.4195 32.68 92.5342 32.872 91.4888 33.064C90.4648 33.256 89.3448 33.352 88.1288 33.352C86.8915 33.352 85.8782 33.1813 85.0888 32.84C84.2995 32.4987 83.6702 32.0187 83.2008 31.4C82.7528 30.76 82.4435 30.0133 82.2728 29.16C82.1022 28.3067 82.0168 27.368 82.0168 26.344V17.96H85.9528V25.832C85.9528 27.2187 86.1128 28.2533 86.4328 28.936C86.7742 29.5973 87.4248 29.928 88.3848 29.928C88.9822 29.928 89.5795 29.8747 90.1768 29.768V17.96H94.1448V32.488ZM110.113 21.96C109.857 21.896 109.547 21.832 109.185 21.768C108.843 21.704 108.491 21.6507 108.129 21.608C107.766 21.544 107.414 21.5013 107.073 21.48C106.731 21.4587 106.443 21.448 106.209 21.448C105.654 21.448 105.11 21.48 104.577 21.544C104.043 21.5867 103.499 21.6827 102.945 21.832V33H98.9768V18.952C100.022 18.568 101.089 18.2587 102.177 18.024C103.286 17.7893 104.577 17.672 106.049 17.672C106.262 17.672 106.561 17.6827 106.945 17.704C107.35 17.7253 107.777 17.768 108.225 17.832C108.673 17.8747 109.121 17.9387 109.569 18.024C110.038 18.088 110.454 18.184 110.817 18.312L110.113 21.96ZM114.145 18.44C114.849 18.248 115.713 18.0667 116.737 17.896C117.782 17.7253 118.913 17.64 120.129 17.64C121.323 17.64 122.315 17.8107 123.105 18.152C123.894 18.472 124.513 18.9413 124.961 19.56C125.43 20.1573 125.761 20.8827 125.953 21.736C126.145 22.568 126.241 23.496 126.241 24.52V33H122.305V25.032C122.305 23.624 122.145 22.6107 121.825 21.992C121.505 21.3733 120.854 21.064 119.873 21.064C119.574 21.064 119.275 21.0747 118.977 21.096C118.699 21.1173 118.401 21.1493 118.081 21.192V33H114.145V18.44ZM129.121 25.608C129.121 24.2853 129.323 23.1227 129.729 22.12C130.134 21.1173 130.667 20.2853 131.329 19.624C131.99 18.9413 132.747 18.4293 133.601 18.088C134.454 17.7467 135.329 17.576 136.225 17.576C138.443 17.576 140.129 18.2373 141.281 19.56C142.433 20.8613 143.009 22.7707 143.009 25.288C143.009 25.544 142.998 25.8107 142.977 26.088C142.977 26.3653 142.966 26.5893 142.945 26.76H133.185C133.185 27.7413 133.59 28.52 134.401 29.096C135.211 29.6507 136.257 29.928 137.537 29.928C138.326 29.928 139.073 29.8427 139.777 29.672C140.502 29.5013 141.11 29.3307 141.601 29.16L142.145 32.52C141.462 32.7547 140.737 32.9467 139.969 33.096C139.201 33.2667 138.337 33.352 137.377 33.352C136.097 33.352 134.945 33.192 133.921 32.872C132.918 32.5307 132.054 32.04 131.329 31.4C130.625 30.7387 130.081 29.928 129.697 28.968C129.313 28.008 129.121 26.888 129.121 25.608ZM139.201 24.04C139.201 23.6347 139.147 23.2507 139.041 22.888C138.934 22.504 138.763 22.1627 138.529 21.864C138.294 21.5653 137.995 21.3307 137.633 21.16C137.27 20.968 136.822 20.872 136.289 20.872C135.777 20.872 135.329 20.9573 134.945 21.128C134.582 21.2987 134.273 21.5333 134.017 21.832C133.782 22.1307 133.59 22.472 133.441 22.856C133.313 23.24 133.227 23.6347 133.185 24.04H139.201ZM151.425 30.024C152.385 30.024 153.121 29.96 153.633 29.832C154.145 29.6827 154.401 29.3947 154.401 28.968C154.401 28.6907 154.315 28.456 154.145 28.264C153.995 28.072 153.771 27.912 153.473 27.784C153.195 27.6347 152.865 27.496 152.481 27.368C152.118 27.24 151.734 27.112 151.329 26.984C150.753 26.8133 150.166 26.6213 149.569 26.408C148.971 26.1733 148.427 25.8853 147.937 25.544C147.446 25.2027 147.041 24.776 146.721 24.264C146.401 23.7307 146.241 23.0693 146.241 22.28C146.241 21.64 146.358 21.0427 146.593 20.488C146.849 19.912 147.233 19.4107 147.745 18.984C148.278 18.536 148.95 18.1947 149.761 17.96C150.571 17.704 151.542 17.576 152.673 17.576C153.654 17.576 154.561 17.6507 155.393 17.8C156.246 17.9493 156.982 18.1627 157.601 18.44L156.993 21.768C156.63 21.6613 156.065 21.4907 155.297 21.256C154.529 21 153.665 20.872 152.705 20.872C151.702 20.872 151.019 21 150.657 21.256C150.315 21.4907 150.145 21.7467 150.145 22.024C150.145 22.2587 150.219 22.472 150.369 22.664C150.539 22.8347 150.753 22.9947 151.009 23.144C151.286 23.2933 151.595 23.4427 151.937 23.592C152.299 23.72 152.683 23.848 153.089 23.976C153.665 24.168 154.262 24.3813 154.881 24.616C155.499 24.8507 156.054 25.1493 156.545 25.512C157.057 25.8533 157.473 26.3013 157.793 26.856C158.113 27.3893 158.273 28.0507 158.273 28.84C158.273 29.4587 158.155 30.0453 157.921 30.6C157.686 31.1547 157.291 31.6347 156.737 32.04C156.203 32.4453 155.499 32.7653 154.625 33C153.75 33.2347 152.673 33.352 151.393 33.352C150.091 33.352 148.982 33.2027 148.065 32.904C147.147 32.6053 146.411 32.3387 145.857 32.104L146.465 28.808C147.211 29.1067 148.001 29.384 148.833 29.64C149.686 29.896 150.55 30.024 151.425 30.024ZM175.233 25.448C175.233 26.6427 175.062 27.7307 174.721 28.712C174.379 29.672 173.899 30.504 173.281 31.208C172.662 31.912 171.915 32.456 171.041 32.84C170.187 33.224 169.227 33.416 168.161 33.416C167.094 33.416 166.123 33.224 165.249 32.84C164.395 32.456 163.649 31.912 163.009 31.208C162.39 30.504 161.91 29.672 161.569 28.712C161.227 27.7307 161.057 26.6427 161.057 25.448C161.057 24.2747 161.227 23.208 161.569 22.248C161.931 21.2667 162.422 20.4347 163.041 19.752C163.681 19.048 164.438 18.5147 165.313 18.152C166.187 17.768 167.137 17.576 168.161 17.576C169.206 17.576 170.155 17.768 171.009 18.152C171.883 18.5147 172.63 19.048 173.249 19.752C173.889 20.4347 174.379 21.2667 174.721 22.248C175.062 23.208 175.233 24.2747 175.233 25.448ZM165.057 25.48C165.057 26.824 165.291 27.912 165.761 28.744C166.251 29.576 167.03 29.992 168.097 29.992C169.121 29.992 169.889 29.576 170.401 28.744C170.934 27.912 171.201 26.824 171.201 25.48C171.201 24.136 170.955 23.0587 170.465 22.248C169.995 21.416 169.227 21 168.161 21C167.137 21 166.358 21.416 165.825 22.248C165.313 23.0587 165.057 24.136 165.057 25.48ZM191.073 32.36C191.009 32.4027 190.859 32.4773 190.625 32.584C190.411 32.6907 190.123 32.808 189.761 32.936C189.398 33.0427 188.95 33.1387 188.417 33.224C187.905 33.3093 187.318 33.352 186.657 33.352C184.843 33.352 183.521 32.8187 182.689 31.752C181.857 30.664 181.441 29.0853 181.441 27.016V14.248H177.281V10.984H185.377V27.304C185.377 28.328 185.579 29.0213 185.985 29.384C186.39 29.7467 186.902 29.928 187.521 29.928C188.31 29.928 188.971 29.8213 189.505 29.608C190.038 29.3947 190.39 29.256 190.561 29.192L191.073 32.36Z" fill="#302500"/>
</g>
</svg>
