
		<svg xmlns="http://www.w3.org/2000/svg" xmlns:xlink="http://www.w3.org/1999/xlink" version="1.1" width="3175.438596491228" height="1210.5263157894738">
			
			<g transform="scale(8.771929824561404) translate(10, 10)">
				<defs id="SvgjsDefs1077"></defs><g id="SvgjsG1078" featureKey="root" fill="#ffffff"></g><g id="SvgjsG1079" featureKey="symbol1" fill="#a80c35" transform="matrix(1.0843373493975905,0,0,1.0843373493975905,-9.216867469879517,-5.421686746987953)"><g id="SvgjsG1080"><polygon xmlns="http://www.w3.org/2000/svg" points="86.3,29.5 72.5,21.2 82.9,5 69.9,19.6 66.1,17.3 67.3,14.2 58.2,26.7 55.6,43.3 54.5,50.7 47.8,53.2 29,53.9   26.2,58.3 30.2,65.1 33.3,95 37,80.5 46.9,93 40.1,73.3 52.3,64.8 64.4,63.8 76.5,79.9 83.9,89.8 75.5,71.2 74.5,61.1 80.5,55.6   91.5,66.8 84.5,52 77.1,52.3 67.5,31.8 85.4,32.1 "></polygon><polygon xmlns="http://www.w3.org/2000/svg" points="17.4,50 12,52.6 8.5,47.7 9.2,54 14.8,57.1 22.1,54.1 29,53.9 23.3,49.2 "></polygon></g></g><g id="SvgjsG1081" featureKey="text1" fill="#a80c35" transform="matrix(4.240882117199051,0,0,4.240882117199051,134.7904991874355,-25.560649601855125)"><path d="M9.88 24 l-4.14 -6.38 l-2.24 2.78 l0 3.6 l-1.8 0 l0 -14 l1.8 0 l0 7.62 l6.22 -7.62 l2.18 0 l-4.94 6.12 l5.02 7.88 l-2.1 0 z M16.14 22.28 l5.92 0 l-0.12 1.72 l-7.6 0 l0 -14 l1.8 0 l0 12.28 z M32.64 22.28 l0.12 1.72 l-8.52 0 l0 -14 l8.12 0 l0.14 1.72 l-6.46 0 l0 3.42 l4.38 0 l0 1.72 l-4.38 0 l0 5.42 l6.6 0 z M35.36 24 l0 -14 l1.8 0 l0 14 l-1.8 0 z M39.76 22.54 c0.88 0.82 2.7 1.66 4.52 1.66 c2.8 0 4.58 -1.44 4.58 -3.7 c0 -1.84 -0.88 -2.92 -3.92 -4.64 c-2.32 -1.34 -2.88 -1.78 -2.88 -2.66 c0 -0.94 0.88 -1.68 2.36 -1.68 c0.86 0 2 0.38 2.66 0.8 l0.96 -1.44 c-0.94 -0.62 -2.42 -1.08 -3.6 -1.08 c-2.58 0 -4.3 1.48 -4.3 3.42 c0 1.72 0.86 2.58 3.5 4.02 c2.34 1.28 3.3 2.22 3.3 3.24 c0 1.2 -1.04 1.92 -2.66 1.92 c-1.4 0 -2.8 -0.66 -3.5 -1.3 z"></path></g><g id="SvgjsG1082" featureKey="text2" fill="#a80c35" transform="matrix(1.0269788001494649,0,0,1.0269788001494649,141.52759020245676,76.93560756265458)"><path d="M10.44 11.72 l-4.08 0 l0 12.28 l-1.8 0 l0 -12.28 l-4.1 0 l0.12 -1.72 l9.74 0 z M27.734 22.28 l0.12 1.72 l-8.52 0 l0 -14 l8.12 0 l0.14 1.72 l-6.46 0 l0 3.42 l4.38 0 l0 1.72 l-4.38 0 l0 5.42 l6.6 0 z M36.608000000000004 17 c0 -4.04 3.18 -7.2 7.18 -7.2 c1.68 0 3.28 0.56 4.7 1.64 l-0.9 1.4 c-1.18 -0.9 -2.4 -1.34 -3.8 -1.34 c-3.02 0 -5.38 2.42 -5.38 5.5 s2.38 5.5 5.38 5.5 c1.52 0 2.82 -0.48 3.8 -1.42 l0.92 1.38 c-1.22 1.1 -2.94 1.74 -4.72 1.74 c-4 0 -7.18 -3.18 -7.18 -7.2 z M66.562 10 l1.8 0 l0 14 l-1.8 0 l0 -6.44 l-6.94 0 l0 6.44 l-1.8 0 l0 -14 l1.8 0 l0 5.84 l6.94 0 l0 -5.84 z M88.056 10 l1.8 0 l0 14.2 l-0.22 0 l-9.4 -9.98 l0 9.78 l-1.78 0 l0 -14.2 l0.2 0 l9.4 9.98 l0 -9.78 z M106.57 24.2 c-4 0 -7.18 -3.2 -7.18 -7.2 s3.18 -7.2 7.18 -7.2 s7.18 3.2 7.18 7.2 s-3.18 7.2 -7.18 7.2 z M106.57 22.48 c3.04 0 5.32 -2.38 5.32 -5.48 s-2.28 -5.48 -5.32 -5.48 c-3.06 0 -5.34 2.38 -5.34 5.48 s2.28 5.48 5.34 5.48 z M125.104 22.28 l5.92 0 l-0.12 1.72 l-7.6 0 l0 -14 l1.8 0 l0 12.28 z M146.53799999999998 24.2 c-4 0 -7.18 -3.2 -7.18 -7.2 s3.18 -7.2 7.18 -7.2 s7.18 3.2 7.18 7.2 s-3.18 7.2 -7.18 7.2 z M146.53799999999998 22.48 c3.04 0 5.32 -2.38 5.32 -5.48 s-2.28 -5.48 -5.32 -5.48 c-3.06 0 -5.34 2.38 -5.34 5.48 s2.28 5.48 5.34 5.48 z M174.872 15.88 l0 6.86 c-1.08 0.82 -2.56 1.46 -4.9 1.46 c-4.4 0 -7.26 -3.2 -7.26 -7.2 s3.02 -7.2 7.22 -7.2 c1.94 0 3.54 0.7 4.8 1.7 l-0.94 1.36 c-1.1 -0.88 -2.46 -1.34 -3.86 -1.34 c-3 0 -5.34 2.28 -5.34 5.48 s2.16 5.46 5.38 5.46 c1.22 0 2.26 -0.26 3.1 -0.66 l0 -4.18 l-2.7 0 l0.12 -1.74 l4.38 0 z M195.20600000000002 10 l-4.94 7.78 l0 6.22 l-1.8 0 l0 -6.2 l-4.96 -7.8 l2.04 0 l3.82 6.02 l3.8 -6.02 l2.04 0 z"></path></g>
			</g>
		</svg>
	